<?xml version="1.0" encoding="utf-8"?>
<!-- Generator: Adobe Illustrator 16.0.0, SVG Export Plug-In . SVG Version: 6.00 Build 0)  -->
<!DOCTYPE svg PUBLIC "-//W3C//DTD SVG 1.1//EN" "http://www.w3.org/Graphics/SVG/1.1/DTD/svg11.dtd">
<svg version="1.1" id="Capa_1" xmlns="http://www.w3.org/2000/svg" xmlns:xlink="http://www.w3.org/1999/xlink" x="0px" y="0px"
	 width="894.69px" height="923.324px" viewBox="-271.203 -143.833 894.69 923.324"
	 enable-background="new -271.203 -143.833 894.69 923.324" xml:space="preserve">
<ellipse opacity="0.8" fill="#AAA6A5" stroke="#000000" stroke-miterlimit="10" cx="181.765" cy="332.219" rx="446.845" ry="445.162"/>
<ellipse fill="#EF8A6F" stroke="#000000" stroke-miterlimit="10" cx="176.142" cy="301.829" rx="446.845" ry="445.162"/>
<g>
	<path fill="#E5E5E5" d="M41.124,77.098h425.2c5.879,0,10.63-4.751,10.63-10.63c0-5.878-4.751-10.63-10.63-10.63h-425.2
		c-5.867,0-10.63,4.752-10.63,10.63C30.494,72.347,35.257,77.098,41.124,77.098z"/>
	<path fill="#E5E5E5" d="M338.765,502.3h-425.2c-5.868,0-10.63,4.751-10.63,10.63c0,5.878,4.762,10.63,10.63,10.63h425.2
		c5.867,0,10.63-4.752,10.63-10.63C349.395,507.051,344.632,502.3,338.765,502.3z"/>
	<path fill="#E5E5E5" d="M466.324,279.069h-201.97c-5.868,0-10.63,4.751-10.63,10.63s4.762,10.63,10.63,10.63h201.97
		c5.879,0,10.63-4.751,10.63-10.63S472.203,279.069,466.324,279.069z"/>
	<path fill="#E5E5E5" d="M-86.435,300.329h212.6c5.868,0,10.631-4.751,10.631-10.63s-4.763-10.63-10.631-10.63h-212.6
		c-5.868,0-10.63,4.751-10.63,10.63S-92.303,300.329-86.435,300.329z"/>
</g>
<circle fill="#C7CAC7" cx="-22.655" cy="66.469" r="63.78"/>
<circle fill="#C7CAC7" cx="192.145" cy="287.499" r="65.98"/>
<circle fill="#C7CAC7" cx="402.545" cy="512.929" r="63.78"/>
<circle fill="#FFFFFF" stroke="#000000" stroke-miterlimit="10" cx="-22.655" cy="45.209" r="63.78"/>
<circle fill="#FFFFFF" stroke="#000000" stroke-miterlimit="10" cx="192.145" cy="266.239" r="65.981"/>
<circle fill="#FFFFFF" stroke="#000000" stroke-miterlimit="10" cx="402.545" cy="491.669" r="63.78"/>
</svg>
