<?xml version="1.0" encoding="utf-8"?>
<!-- Generator: Adobe Illustrator 16.0.0, SVG Export Plug-In . SVG Version: 6.00 Build 0)  -->
<!DOCTYPE svg PUBLIC "-//W3C//DTD SVG 1.1//EN" "http://www.w3.org/Graphics/SVG/1.1/DTD/svg11.dtd">
<svg version="1.1" id="Layer_1" xmlns="http://www.w3.org/2000/svg" xmlns:xlink="http://www.w3.org/1999/xlink" x="0px" y="0px"
	 width="688.224px" height="221.929px" viewBox="0 0 688.224 221.929" enable-background="new 0 0 688.224 221.929"
	 xml:space="preserve">
<g opacity="0.5">
	<g>
		<path fill="#838383" d="M110.233,109.272c-0.182-0.025-0.364-0.041-0.551-0.041H99.277c6.087-13.839,10.121-28.459,12.004-43.557
			l1.769-14.169c0.227-1.81-0.684-3.57-2.276-4.404c-1.591-0.833-3.524-0.56-4.835,0.68l-1.422,1.347
			c-5.918,5.604-11.2,11.745-15.806,18.331c3.733-18.272,8.533-36.74,13.75-48.335l0.021-0.049c0.805-1.792,0.323-3.912-1.174-5.16
			c-1.495-1.248-3.629-1.31-5.192-0.15c-8.446,6.269-16.044,13.717-22.56,22.045c1.188-10.242,3.944-20.331,8.158-29.664
			c0.755-1.672,0.391-3.648-0.906-4.928c-1.298-1.28-3.247-1.585-4.861-0.761l-7.861,4.018
			c-12.235,6.252-20.697,17.632-23.42,30.896C38.809,28.502,31.626,22.9,23.493,18.937L12.048,13.36
			c-1.666-0.811-3.656-0.434-4.924,0.936C5.855,15.663,5.599,17.71,6.49,19.36l0.766,1.417c7.838,14.529,13.763,29.937,17.699,45.95
			c-2.889-2.196-5.987-4.117-9.271-5.717l-9.598-4.677c-1.666-0.812-3.657-0.435-4.925,0.935c-1.267,1.369-1.523,3.416-0.633,5.065
			l0.641,1.188c7.736,14.337,13.244,29.698,16.408,45.71H4.251c-2.347,0-4.251,1.941-4.251,4.334v71.737
			c0,20.194,16.116,36.626,35.923,36.626H78.01c2.968,0,5.847-0.383,8.605-1.084c-0.365-1.368-0.208-2.896,0.474-4.124
			c-1.147-0.854-1.777-2.213-1.893-3.622c-0.62-0.06-1.17-0.22-1.655-0.455c-1.786,0.393-3.631,0.617-5.531,0.617H35.923
			c-15.119,0-27.42-12.543-27.42-27.958v-47.898h58.454c2.348,0,4.252-1.938,4.252-4.335c0-2.393-1.904-4.333-4.252-4.333H8.502
			V117.9h84.032c0.004,0,0.011,0.001,0.015,0.001c0.004,0,0.008-0.001,0.012-0.001h12.871v23.489
			c2.269-0.353,4.798,0.604,5.752,3.367c2.597,7.521,1.467,15.509,2.75,23.159v-44.454
			C113.363,118.503,112.283,113.635,110.233,109.272z M52.223,44.718c-0.001-13.018,6.669-24.806,17.56-31.32
			c-3.549,10.888-5.397,22.395-5.397,33.829v1.207c0,0.273,0.027,0.537,0.075,0.795c-1.292,2.214-2.52,4.467-3.667,6.764
			c-0.865,1.732-1.685,3.49-2.464,5.264c-1.456-5.329-3.56-10.47-6.283-15.308C52.159,45.558,52.223,45.145,52.223,44.718z
			 M26.245,109.231c-2.56-13.675-6.735-26.907-12.463-39.494c14.419,7.813,23.922,22.911,24.927,39.494H26.245z M48.104,109.231
			h-0.881c-0.488-9.685-3.391-19.071-8.483-27.308c-0.853-1.381-1.769-2.713-2.729-4.008c-3.138-17.769-8.564-34.927-16.184-51.157
			l0.001,0c19.536,9.52,32.206,29.858,32.396,51.911C49.566,88.621,48.167,98.92,48.104,109.231z M75.77,91.369
			c-2.315,5.759-4.198,11.724-5.627,17.862H56.609c0.194-29.4,12.011-57.479,32.293-77.879
			C81.955,53.74,77.273,81.697,75.779,91.293C75.774,91.318,75.774,91.343,75.77,91.369z M89.902,109.231H78.896
			c4.344-17.241,12.577-32.977,24.144-46.197l-0.194,1.547C100.907,80.125,96.553,95.131,89.902,109.231z"/>
		<path fill="#838383" d="M108.95,180.415c-0.827,0.457-1.643,0.933-2.426,1.484c-0.367,0.258-0.731,0.451-1.092,0.596v2.809
			c0,1.362-0.101,2.7-0.287,4.013c2.605-0.388,5.218-0.002,7.904,0.632c0.009-0.007,0.016-0.012,0.024-0.016
			c0.202-0.129,0.403-0.217,0.599-0.272c0.167-1.431,0.262-2.883,0.262-4.356v-5.297c-0.927,0.71-2.177,1.036-3.353,0.946
			C109.957,180.907,109.422,180.709,108.95,180.415z"/>
	</g>
</g>
<g>
	<path fill="#6F8379" d="M100.698,108.16h12.691c1.251,1.111,4.14,11.724,8.669,31.836c1.191,3.651,7.239,27.338,18.142,71.056
		l-0.894,0.397h-14.121c-0.894,0-2.712-6.457-5.452-19.372H94.353c-2.741,11.273-4.558,17.731-5.452,19.372H74.333l-0.894-0.397
		l26.365-102.495L100.698,108.16z M76.121,213.434h0.983c5.72,4.976,8.58,7.675,8.58,8.099v0.396h-0.447
		c-0.418,0-3.457-2.699-9.116-8.098V213.434z M80.232,213.434h2.324c0.357,0,3.365,2.699,9.026,8.099v0.396h-2.234
		c-0.417,0-3.456-2.699-9.116-8.098V213.434z M86.13,213.434h1.877c0.357,0,3.365,2.699,9.026,8.099v0.396h-1.788
		c-0.417,0-3.456-2.699-9.116-8.098V213.434z M92.029,211.45l9.563,8.892v0.397c0,0.37-0.447,0.768-1.34,1.19l-9.116-8.495v-1.19
		C91.254,211.715,91.551,211.45,92.029,211.45z M93.012,207.797c0.357,0,3.515,2.832,9.474,8.495v0.794
		c0,0.529-0.299,0.794-0.894,0.794c-0.417,0-3.605-2.831-9.563-8.495v-0.794C92.147,208.063,92.476,207.797,93.012,207.797z
		 M93.459,203.749h0.447c0.357,0,3.515,2.832,9.473,8.495v0.794c0,0.529-0.299,0.794-0.894,0.794l-9.474-8.813
		C93.31,204.49,93.459,204.066,93.459,203.749z M95.246,199.302l9.563,8.893c-0.299,0.476-0.447,1.031-0.447,1.667h-0.536
		c-0.357,0-3.516-2.831-9.473-8.495v-1.191C94.411,199.594,94.71,199.302,95.246,199.302z M95.246,195.73h0.894
		c0.417,0,3.604,2.806,9.563,8.415v0.397c0,0.424-0.447,0.847-1.341,1.271l-9.116-8.495V195.73z M106.596,142.855l-8.669,35.885
		h18.232l-9.116-35.885H106.596z M97.927,194.063h1.877c0.357,0,3.365,2.699,9.026,8.098v0.396h-1.788
		c-0.417,0-3.456-2.699-9.116-8.098V194.063z M101.591,173.897c0.417,0,1.341,0.821,2.771,2.461v0.397h-1.876
		c-0.478,0-1.073-0.529-1.788-1.588v-0.477C100.756,174.163,101.055,173.897,101.591,173.897z M102.932,169.451l7.329,6.907v0.397
		h-2.324c-0.417,0-2.533-1.879-6.346-5.637C102.068,170.007,102.515,169.451,102.932,169.451z M103.826,165.482l9.116,8.415v1.667
		h-0.447c-0.417,0-3.605-2.83-9.563-8.494v-0.795C103.051,165.747,103.348,165.482,103.826,165.482z M103.379,194.063h2.324
		c0.416,0,3.425,2.699,9.026,8.098v0.396h-2.234c-0.417,0-3.456-2.699-9.116-8.098V194.063z M103.826,161.83h0.983
		c4.527,3.334,6.792,5.743,6.792,7.225v0.396h-0.447c-0.417,0-2.86-2.144-7.329-6.431V161.83z M105.256,157.383h0.447
		c3.039,1.959,4.558,3.97,4.558,6.034h-0.447c-3.337-2.488-5.004-4.102-5.004-4.844
		C105.106,158.046,105.256,157.649,105.256,157.383z M106.149,153.334h0.447c0.894,0,1.489,1.085,1.788,3.255h-0.447
		c-0.478,0-1.073-0.556-1.788-1.667V153.334z M108.831,194.063h2.324c0.357,0,3.365,2.699,9.026,8.098l-0.894,0.396h-1.341
		c-0.417,0-3.456-2.699-9.116-8.098V194.063z M114.729,194.063h1.877c1.488,0.688,2.234,1.905,2.234,3.651h-0.447
		c-0.357,0-1.579-1.084-3.664-3.255V194.063z M117.053,111.415h0.447c0.416,0,3.276,2.541,8.58,7.622v0.397h-0.447
		c-0.357,0-3.217-2.541-8.58-7.622V111.415z M118.393,116.258h0.447c6.077,4.446,9.116,7.808,9.116,10.083h-0.447
		C121.432,121.895,118.393,118.535,118.393,116.258z M120.627,122.292c5.778,4.817,8.669,8.046,8.669,9.686v0.396h-0.447
		c-6.077-4.657-9.116-7.886-9.116-9.686L120.627,122.292z M121.611,129.12h0.447c6.017,4.553,9.026,7.78,9.026,9.687h-0.447
		C124.619,134.253,121.611,131.025,121.611,129.12z M123.398,135.154c6.077,4.658,9.116,7.754,9.116,9.289v0.873h-0.447
		c-5.78-4.234-8.669-7.463-8.669-9.686V135.154z M124.739,141.664h0.447c6.077,4.658,9.116,8.019,9.116,10.083h-0.447
		C127.777,147.3,124.739,143.94,124.739,141.664z M126.615,148.492h0.447c0.357,0,3.217,2.567,8.58,7.701v1.984
		C129.624,153.626,126.615,150.397,126.615,148.492z M127.509,213.832h0.447c0.357,0,3.217,2.567,8.58,7.701h-0.447
		C135.731,221.533,132.872,218.965,127.509,213.832z M127.956,154.525h0.447c6.077,4.5,9.116,7.86,9.116,10.083h-0.536
		C130.964,160.162,127.956,156.801,127.956,154.525z M129.743,161.432h0.447c6.077,4.553,9.116,7.78,9.116,9.687h-0.447
		C132.782,166.567,129.743,163.337,129.743,161.432z M131.531,213.434h1.43c0.357,0,3.365,2.699,9.026,8.099v0.396h-2.234
		c-0.417,0-3.456-2.699-9.116-8.098L131.531,213.434z M131.531,167.466c6.077,4.658,9.116,7.754,9.116,9.289v0.396H140.2
		c-5.78-4.393-8.669-7.355-8.669-8.892V167.466z M132.961,173.897h0.447c6.017,4.446,9.026,7.808,9.026,10.083h-0.447
		C135.969,179.534,132.961,176.173,132.961,173.897z M134.748,180.804h0.447c6.078,4.553,9.116,7.78,9.116,9.686h-0.447
		C137.787,185.938,134.748,182.709,134.748,180.804z M136.536,186.837c6.077,4.446,9.116,7.809,9.116,10.083h-0.447
		c-5.78-4.393-8.669-7.355-8.669-8.892V186.837z M136.536,213.434h1.877c0.357,0,3.365,2.699,9.026,8.099v0.396h-1.788
		c-0.417,0-3.456-2.699-9.116-8.098V213.434z M137.965,193.269h0.447c6.017,4.445,9.026,7.808,9.026,10.082h-0.447
		C140.974,198.906,137.965,195.545,137.965,193.269z M139.753,200.175h0.447c5.778,4.395,8.669,7.332,8.669,8.813v0.874
		C142.792,205.256,139.753,202.029,139.753,200.175z M141.094,206.209h0.447c6.077,4.446,9.116,7.808,9.116,10.083h-0.447
		C144.132,211.794,141.094,208.432,141.094,206.209z M142.881,212.64h0.536c5.72,4.394,8.58,7.357,8.58,8.893l-0.894,0.396
		c-0.417,0-3.456-2.699-9.116-8.098v-0.397C142.582,213.434,142.881,213.17,142.881,212.64z"/>
	<path fill="#6F8379" d="M150.656,108.16h29.85c7.923,0,13.524,2.409,16.802,7.225c1.489,2.33,2.234,4.737,2.234,7.225v30.566
		c0,6.617-4.528,11.301-13.584,14.053h-20.823v43.428c0,0.529-0.299,0.794-0.894,0.794h-13.584c-0.596,0-0.894-0.265-0.894-0.794
		V108.954C149.881,108.426,150.179,108.16,150.656,108.16z M153.427,213.117l9.026,8.416l-0.894,0.396l-9.116-8.416L153.427,213.117
		z M157.001,213.117h1.341c0.416,0,3.604,2.806,9.563,8.416v0.396h-2.324c-0.417,0-3.575-2.805-9.473-8.416L157.001,213.117z
		 M162.006,213.117h1.788c0.416,0,3.575,2.806,9.473,8.416v0.396h-1.788c-0.417,0-3.575-2.805-9.473-8.416V213.117z
		 M165.134,121.815v32.154h14.031c3.336-0.423,5.005-1.878,5.005-4.366v-23.738c-0.596-2.7-2.116-4.049-4.558-4.049H165.134z
		 M167.369,124.674h0.536c0.357,0,3.365,2.673,9.026,8.019v1.984h-0.447c-0.417,0-3.456-2.672-9.116-8.019V124.674z
		 M167.369,129.437h0.536c0.357,0,3.365,2.699,9.026,8.098v1.985h-0.447c-0.417,0-3.456-2.672-9.116-8.019V129.437z
		 M167.369,134.677h0.536c0.357,0,3.365,2.674,9.026,8.019v1.667h-0.447c-0.417,0-3.456-2.699-9.116-8.098V134.677z M167.369,139.52
		h0.536c0.357,0,3.365,2.673,9.026,8.019v2.064h-0.447c-0.417,0-3.456-2.699-9.116-8.098V139.52z M167.369,144.363h0.536
		c0.357,0,3.068,2.409,8.133,7.225v0.397h-2.324c-0.417,0-2.533-1.878-6.345-5.638V144.363z M167.369,149.603h0.536
		c0.357,0,1.102,0.662,2.234,1.984v0.397h-1.788c-0.656,0-0.983-0.265-0.983-0.794V149.603z M167.369,172.071h0.536
		c0.357,0,3.365,2.673,9.026,8.019v1.667h-0.447c-0.417,0-3.456-2.699-9.116-8.098V172.071z M167.369,176.914h0.536
		c0.357,0,3.365,2.674,9.026,8.019v1.588h-0.447c-2.741-1.746-5.78-4.418-9.116-8.019V176.914z M167.369,181.756h0.536l9.026,8.019
		v1.985h-0.447c-0.417,0-3.456-2.672-9.116-8.019V181.756z M167.369,186.917h0.536c0.357,0,3.365,2.699,9.026,8.098v1.588h-0.447
		c-0.417,0-3.456-2.672-9.116-8.019V186.917z M167.369,191.76h0.536c0.357,0,3.365,2.699,9.026,8.098v1.985h-0.447
		c-0.357-0.053-3.396-2.885-9.116-8.495V191.76z M167.369,196.603h0.536c5.957,5.081,8.966,7.755,9.026,8.019v2.064h-0.447
		c-0.417,0-3.456-2.699-9.116-8.099V196.603z M167.369,201.843h0.536c0.357,0,3.365,2.673,9.026,8.019v1.588h-0.447
		c-0.417,0-3.456-2.672-9.116-8.019V201.843z M167.369,206.686h0.536c0.357,0,3.365,2.673,9.026,8.019v1.984h-0.447
		c-0.417,0-3.456-2.672-9.116-8.019V206.686z M167.369,211.45h0.536c0.357,0,3.365,2.699,9.026,8.098v1.985h-0.447
		c-0.417,0-3.456-2.673-9.116-8.02V211.45z M168.352,169.292h2.234c0.416,0,3.425,2.673,9.026,8.018v0.397h-2.234
		c-0.417,0-3.427-2.672-9.026-8.019V169.292z M170.139,123.403h1.787c0.417,0,3.575,2.832,9.474,8.495v0.397h-1.788
		c-0.417,0-3.575-2.831-9.473-8.495V123.403z M174.161,169.292h1.877c0.357,0,3.365,2.673,9.026,8.018v0.397h-1.788
		c-0.417,0-3.456-2.672-9.116-8.019V169.292z M175.591,123.403h2.234c0.416,0,1.935,1.35,4.558,4.049v1.191
		c0,0.529-0.328,0.793-0.983,0.793l-5.809-5.637V123.403z M179.612,169.292h1.788c0.416,0,3.455,2.673,9.116,8.018v0.397h-1.877
		c-0.357,0-3.367-2.672-9.026-8.019V169.292z M185.511,168.895h1.341c0.416,0,3.604,2.806,9.563,8.415v0.397h-2.324
		c-6.256-5.239-9.415-8.044-9.473-8.415L185.511,168.895z M190.516,167.625h0.447c0.416,0,3.723,2.965,9.92,8.893l-0.894,0.396
		h-0.894c-0.417,0-3.575-2.805-9.473-8.416C189.681,167.917,189.979,167.625,190.516,167.625z M194.984,165.64
		c0.059,0.424,3.247,3.361,9.563,8.813c0,0.424-0.447,0.848-1.34,1.271c-0.418,0-3.754-2.964-10.01-8.892v-0.795
		C193.375,166.037,193.97,165.906,194.984,165.64z M197.755,163.258l9.473,8.813v0.397c0,0.529-0.299,0.793-0.894,0.793h-0.447
		l-9.474-8.415v-0.397C196.414,164.08,196.861,163.683,197.755,163.258z M199.989,160.4l9.474,8.893v0.396
		c0,0.529-0.299,0.794-0.894,0.794c-0.417,0-3.724-2.964-9.92-8.892C198.648,161.221,199.095,160.825,199.989,160.4z
		 M201.776,156.828c0,0.158,3.187,3.096,9.563,8.813c-0.478,1.06-0.954,1.588-1.43,1.588l-9.473-8.813
		C200.912,157.357,201.359,156.828,201.776,156.828z M201.33,118.64c4.051,3.175,6.464,5.452,7.239,6.828v0.397
		c-0.357,0-2.77-2.144-7.239-6.431V118.64z M201.776,152.779h0.447c0.416,0,3.455,2.673,9.116,8.019v2.063h-0.447
		c-6.316-5.345-9.504-8.177-9.563-8.494C201.627,153.89,201.776,153.362,201.776,152.779z M201.776,123.006h0.447
		c0.416,0,3.455,2.699,9.116,8.098v1.985h-0.447c-5.78-4.657-8.818-7.463-9.116-8.416V123.006z M201.776,127.85h0.447
		c0.416,0,3.455,2.673,9.116,8.019v2.063h-0.447c-0.417,0-3.456-2.699-9.116-8.098V127.85z M201.776,133.089h0.447
		c0.416,0,3.455,2.674,9.116,8.019v1.588h-0.447c-0.417,0-3.456-2.672-9.116-8.019V133.089z M201.776,137.932h0.447
		c0.416,0,3.455,2.673,9.116,8.019v1.984h-0.447c-0.417,0-3.456-2.672-9.116-8.018V137.932z M201.776,142.696h0.447
		c0.416,0,3.455,2.699,9.116,8.099v1.984h-0.447c-0.417,0-3.456-2.672-9.116-8.02V142.696z M201.776,147.935h0.447
		c0.416,0,3.455,2.699,9.116,8.099v1.588h-0.447c-0.417,0-3.456-2.673-9.116-8.019V147.935z"/>
	<path fill="#6F8379" d="M234.665,108.16h12.691c1.251,1.111,4.14,11.724,8.669,31.836c1.191,3.651,7.239,27.338,18.142,71.056
		l-0.894,0.397h-14.121c-0.894,0-2.712-6.457-5.452-19.372H228.32c-2.741,11.273-4.558,17.731-5.452,19.372h-14.567l-0.894-0.397
		l26.365-102.495L234.665,108.16z M210.088,213.434h0.983c5.72,4.976,8.58,7.675,8.58,8.099v0.396h-0.447
		c-0.418,0-3.457-2.699-9.116-8.098V213.434z M214.199,213.434h2.324c0.357,0,3.365,2.699,9.026,8.099v0.396h-2.234
		c-0.417,0-3.456-2.699-9.116-8.098V213.434z M220.098,213.434h1.877c0.357,0,3.365,2.699,9.026,8.099v0.396h-1.788
		c-0.417,0-3.456-2.699-9.116-8.098V213.434z M225.996,211.45l9.563,8.892v0.397c0,0.37-0.447,0.768-1.34,1.19l-9.116-8.495v-1.19
		C225.221,211.715,225.519,211.45,225.996,211.45z M226.979,207.797c0.357,0,3.515,2.832,9.474,8.495v0.794
		c0,0.529-0.299,0.794-0.894,0.794c-0.417,0-3.605-2.831-9.563-8.495v-0.794C226.115,208.063,226.443,207.797,226.979,207.797z
		 M227.426,203.749h0.447c0.357,0,3.515,2.832,9.473,8.495v0.794c0,0.529-0.299,0.794-0.894,0.794l-9.474-8.813
		C227.277,204.49,227.426,204.066,227.426,203.749z M229.213,199.302l9.563,8.893c-0.299,0.476-0.447,1.031-0.447,1.667h-0.536
		c-0.357,0-3.516-2.831-9.473-8.495v-1.191C228.378,199.594,228.677,199.302,229.213,199.302z M229.213,195.73h0.894
		c0.417,0,3.604,2.806,9.563,8.415v0.397c0,0.424-0.447,0.847-1.341,1.271l-9.116-8.495V195.73z M240.563,142.855l-8.669,35.885
		h18.232l-9.116-35.885H240.563z M231.895,194.063h1.877c0.357,0,3.365,2.699,9.026,8.098v0.396h-1.788
		c-0.417,0-3.456-2.699-9.116-8.098V194.063z M235.559,173.897c0.417,0,1.341,0.821,2.771,2.461v0.397h-1.876
		c-0.478,0-1.073-0.529-1.788-1.588v-0.477C234.724,174.163,235.022,173.897,235.559,173.897z M236.899,169.451l7.329,6.907v0.397
		h-2.324c-0.417,0-2.533-1.879-6.346-5.637C236.035,170.007,236.482,169.451,236.899,169.451z M237.793,165.482l9.116,8.415v1.667
		h-0.447c-0.417,0-3.605-2.83-9.563-8.494v-0.795C237.018,165.747,237.315,165.482,237.793,165.482z M237.346,194.063h2.324
		c0.416,0,3.425,2.699,9.026,8.098v0.396h-2.234c-0.417,0-3.456-2.699-9.116-8.098V194.063z M237.793,161.83h0.983
		c4.527,3.334,6.792,5.743,6.792,7.225v0.396h-0.447c-0.417,0-2.86-2.144-7.329-6.431V161.83z M239.223,157.383h0.447
		c3.039,1.959,4.558,3.97,4.558,6.034h-0.447c-3.337-2.488-5.004-4.102-5.004-4.844
		C239.074,158.046,239.223,157.649,239.223,157.383z M240.117,153.334h0.447c0.894,0,1.489,1.085,1.788,3.255h-0.447
		c-0.478,0-1.073-0.556-1.788-1.667V153.334z M242.798,194.063h2.324c0.357,0,3.365,2.699,9.026,8.098l-0.894,0.396h-1.341
		c-0.417,0-3.456-2.699-9.116-8.098V194.063z M248.696,194.063h1.877c1.488,0.688,2.234,1.905,2.234,3.651h-0.447
		c-0.357,0-1.579-1.084-3.664-3.255V194.063z M251.02,111.415h0.447c0.416,0,3.276,2.541,8.58,7.622v0.397H259.6
		c-0.357,0-3.217-2.541-8.58-7.622V111.415z M252.36,116.258h0.447c6.077,4.446,9.115,7.808,9.115,10.083h-0.446
		C255.399,121.895,252.36,118.535,252.36,116.258z M254.595,122.292c5.778,4.817,8.669,8.046,8.669,9.686v0.396h-0.446
		c-6.078-4.657-9.116-7.886-9.116-9.686L254.595,122.292z M255.578,129.12h0.447c6.017,4.553,9.026,7.78,9.026,9.687h-0.446
		C258.586,134.253,255.578,131.025,255.578,129.12z M257.365,135.154c6.077,4.658,9.116,7.754,9.116,9.289v0.873h-0.447
		c-5.78-4.234-8.669-7.463-8.669-9.686V135.154z M258.706,141.664h0.447c6.078,4.658,9.116,8.019,9.116,10.083h-0.447
		C261.744,147.3,258.706,143.94,258.706,141.664z M260.583,148.492h0.447c0.357,0,3.217,2.567,8.58,7.701v1.984
		C263.591,153.626,260.583,150.397,260.583,148.492z M261.477,213.832h0.446c0.357,0,3.218,2.567,8.58,7.701h-0.447
		C269.698,221.533,266.839,218.965,261.477,213.832z M261.923,154.525h0.447c6.077,4.5,9.116,7.86,9.116,10.083h-0.536
		C264.931,160.162,261.923,156.801,261.923,154.525z M263.711,161.432h0.446c6.077,4.553,9.116,7.78,9.116,9.687h-0.447
		C266.749,166.567,263.711,163.337,263.711,161.432z M265.498,213.434h1.43c0.357,0,3.365,2.699,9.026,8.099v0.396h-2.233
		c-0.418,0-3.457-2.699-9.116-8.098L265.498,213.434z M265.498,167.466c6.077,4.658,9.116,7.754,9.116,9.289v0.396h-0.447
		c-5.779-4.393-8.669-7.355-8.669-8.892V167.466z M266.928,173.897h0.447c6.017,4.446,9.026,7.808,9.026,10.083h-0.447
		C269.936,179.534,266.928,176.173,266.928,173.897z M268.716,180.804h0.446c6.077,4.553,9.116,7.78,9.116,9.686h-0.447
		C271.754,185.938,268.716,182.709,268.716,180.804z M270.503,186.837c6.077,4.446,9.116,7.809,9.116,10.083h-0.447
		c-5.78-4.393-8.669-7.355-8.669-8.892V186.837z M270.503,213.434h1.877c0.357,0,3.365,2.699,9.026,8.099v0.396h-1.787
		c-0.418,0-3.457-2.699-9.116-8.098V213.434z M271.933,193.269h0.447c6.017,4.445,9.026,7.808,9.026,10.082h-0.447
		C274.94,198.906,271.933,195.545,271.933,193.269z M273.721,200.175h0.446c5.778,4.395,8.669,7.332,8.669,8.813v0.874
		C276.759,205.256,273.721,202.029,273.721,200.175z M275.061,206.209h0.447c6.077,4.446,9.115,7.808,9.115,10.083h-0.446
		C278.1,211.794,275.061,208.432,275.061,206.209z M276.849,212.64h0.536c5.72,4.394,8.579,7.357,8.579,8.893l-0.894,0.396
		c-0.418,0-3.456-2.699-9.116-8.098v-0.397C276.55,213.434,276.849,213.17,276.849,212.64z"/>
	<path fill="#6F8379" d="M284.624,107.922h29.939c9.294,0,15.341,3.362,18.142,10.083c0.596,1.853,0.895,3.467,0.895,4.843v29.772
		c0,6.882-4.231,11.591-12.691,14.132l-1.787,0.396c0.595,1.854,6.792,16.488,18.589,43.904l-0.894,0.397h-15.014
		c-1.431-1.747-6.257-12.755-14.479-33.027c-3.338-7.515-5.154-11.274-5.452-11.274h-2.681v43.508c0,0.529-0.328,0.794-0.983,0.794
		h-13.584c-0.597,0-0.894-0.265-0.894-0.794v-101.94C283.849,108.188,284.146,107.922,284.624,107.922z M286.411,213.434h0.536
		c0.357,0,3.365,2.699,9.026,8.099h-0.446C295.109,221.533,292.071,218.833,286.411,213.434z M290.075,213.038h2.234
		c0.416,0,3.604,2.832,9.563,8.495l-0.894,0.396h-1.34c-0.418,0-3.606-2.831-9.563-8.495V213.038z M296.421,213.038h1.341
		c0.416,0,3.604,2.832,9.563,8.495v0.396h-2.323c-0.358,0-3.517-2.831-9.474-8.495L296.421,213.038z M299.191,121.657v32.153h13.138
		c3.933,0,5.898-1.746,5.898-5.239v-22.15c-0.299-3.176-1.818-4.764-4.558-4.764H299.191z M301.872,125.229l9.027,8.495v1.191
		c0,0.529-0.299,0.794-0.895,0.794c-6.019-5.187-9.026-8.416-9.026-9.686C301.037,125.495,301.336,125.229,301.872,125.229z
		 M301.872,130.072l9.027,8.496v1.984h-0.447c-6.316-4.922-9.474-8.15-9.474-9.686C301.037,130.338,301.336,130.072,301.872,130.072
		z M301.872,135.312l9.027,8.495v1.588h-0.447c-0.357,0-3.517-2.831-9.474-8.495v-0.794
		C301.037,135.578,301.336,135.312,301.872,135.312z M301.872,140.156l9.027,8.415v2.063h-0.447
		c-6.316-4.922-9.474-8.149-9.474-9.686C301.037,140.421,301.336,140.156,301.872,140.156z M301.872,144.998l6.793,6.432v0.396
		h-2.234c-0.418,0-2.234-1.613-5.452-4.843v-1.19C301.037,145.263,301.336,144.998,301.872,144.998z M301.872,150.238l0.895,1.191
		v0.396h-0.895c-0.596,0-0.894-0.264-0.894-0.794C301.037,150.503,301.336,150.238,301.872,150.238z M301.872,171.595l1.788,3.969
		h-0.447c-1.49-0.688-2.234-1.746-2.234-3.176C301.037,171.86,301.336,171.595,301.872,171.595z M301.872,176.437
		c3.337,2.753,5.005,5.161,5.005,7.226c-0.417,0-2.384-1.747-5.898-5.24v-1.19C301.037,176.703,301.336,176.437,301.872,176.437z
		 M301.872,181.677c5.422,4.553,8.133,7.622,8.133,9.21v0.396c-0.357,0-3.366-2.672-9.026-8.019v-0.794
		C301.037,181.943,301.336,181.677,301.872,181.677z M301.872,186.917c0.417,0,3.426,2.673,9.027,8.019v1.984h-0.447
		c-6.316-4.869-9.474-8.07-9.474-9.606L301.872,186.917z M301.872,191.284l9.027,8.495v1.984h-0.447
		c-0.357,0-3.517-2.805-9.474-8.415v-1.191C301.037,191.576,301.336,191.284,301.872,191.284z M301.872,196.524l9.027,8.495v1.588
		h-0.447c-0.357,0-3.517-2.806-9.474-8.416v-0.873C301.037,196.79,301.336,196.524,301.872,196.524z M301.872,201.367l9.027,8.495
		v1.984h-0.447c-6.316-4.922-9.474-8.15-9.474-9.686C301.037,201.632,301.336,201.367,301.872,201.367z M301.872,206.209
		l9.027,8.495v1.984h-0.447c-0.357,0-3.517-2.83-9.474-8.494v-1.191C301.037,206.475,301.336,206.209,301.872,206.209z
		 M301.872,211.45l9.027,8.495v1.588h-0.447c-6.316-4.923-9.474-8.15-9.474-9.687L301.872,211.45z M302.767,123.245h1.787
		c0.416,0,3.604,2.806,9.563,8.415v0.397h-1.787c-0.418,0-3.605-2.805-9.563-8.416V123.245z M308.218,123.245h2.234
		c0.416,0,2.234,1.615,5.451,4.843v1.985h-0.446c-0.357,0-2.771-2.144-7.239-6.431V123.245z M314.116,123.642h0.447
		c0.416,0,0.862,0.397,1.34,1.191v0.397h-0.446c-0.418,0-0.864-0.397-1.341-1.191V123.642z M324.573,167.545h0.446
		c0.416,0,3.723,2.965,9.92,8.892c-0.953,0.53-1.697,0.795-2.234,0.795l-9.563-8.893L324.573,167.545z M323.143,171.198
		c5.778,4.394,8.669,7.463,8.669,9.209h-0.446c-5.482-4.075-8.223-7.013-8.223-8.812V171.198z M324.573,213.038h1.34
		c0.416,0,3.575,2.832,9.474,8.495l-0.894,0.396h-1.341c-0.417,0-3.575-2.831-9.474-8.495L324.573,213.038z M326.36,179.216h0.446
		c5.72,4.287,8.58,7.516,8.58,9.686h-0.447C329.22,184.509,326.36,181.281,326.36,179.216z M327.254,165.958h1.341
		c0.416,0,3.604,2.806,9.563,8.415v0.397c0,0.53-0.299,0.794-0.894,0.794c-0.418,0-3.754-2.938-10.01-8.813V165.958z
		 M330.024,213.038h1.341c0.416,0,3.574,2.832,9.473,8.495v0.396h-2.233c-0.418,0-3.606-2.831-9.563-8.495L330.024,213.038z
		 M329.488,186.917h0.536c5.72,4.182,8.58,7.516,8.58,10.003C332.526,192.37,329.488,189.035,329.488,186.917z M330.918,163.497
		h0.447c0.416,0,3.723,2.965,9.92,8.892c0,0.529-0.299,0.794-0.894,0.794h-0.447c-0.417,0-3.724-2.964-9.92-8.892
		C330.083,163.762,330.382,163.497,330.918,163.497z M334.046,160.321l9.563,8.813v0.397c0,0.424-0.446,0.847-1.34,1.27
		l-9.563-8.892v-0.397C332.705,161.142,333.152,160.746,334.046,160.321z M333.152,195.333h0.447
		c5.421,3.97,8.133,7.066,8.133,9.289C336.013,200.229,333.152,197.132,333.152,195.333z M335.387,157.066
		c0.416,0,3.604,2.832,9.563,8.494v0.795c0,0.529-0.299,0.793-0.894,0.793l-9.563-8.891v-0.397
		C334.611,157.332,334.909,157.066,335.387,157.066z M334.939,213.038h1.877c0.357,0,3.515,2.832,9.474,8.495v0.396h-1.787
		c-0.418,0-3.605-2.831-9.563-8.495V213.038z M335.387,118.799c5.005,3.811,7.597,6.22,7.775,7.225h-0.447
		c-0.417,0-2.859-2.144-7.328-6.431V118.799z M336.37,122.451c6.017,5.188,9.026,8.39,9.026,9.606v0.874h-0.447
		c-0.417,0-3.605-2.832-9.563-8.496v-1.191C335.506,122.716,335.834,122.451,336.37,122.451z M336.37,127.69l9.026,8.416v1.588
		h-0.447c-0.417,0-3.605-2.805-9.563-8.416v-0.794C335.506,127.956,335.834,127.69,336.37,127.69z M336.37,132.534l9.026,8.415
		v1.985h-0.447c-6.376-4.764-9.563-8.099-9.563-10.003L336.37,132.534z M336.37,137.296l9.026,8.496v1.984h-0.447
		c-0.417,0-3.605-2.805-9.563-8.416v-1.19C335.506,137.588,335.834,137.296,336.37,137.296z M336.37,142.537l9.026,8.495v1.588
		h-0.447c-0.417,0-3.605-2.805-9.563-8.415v-0.795C335.506,142.829,335.834,142.537,336.37,142.537z M336.37,147.38l9.026,8.494
		v1.985h-0.447c-6.376-4.923-9.563-8.15-9.563-9.687C335.506,147.646,335.834,147.38,336.37,147.38z M336.37,152.222l9.026,8.893
		v1.588h-0.447c-0.417,0-3.605-2.805-9.563-8.416v-1.27C335.506,152.488,335.834,152.222,336.37,152.222z M336.816,203.034
		c5.72,4.076,8.58,7.411,8.58,10.004c-5.72-4.287-8.58-7.489-8.58-9.606V203.034z M339.944,211.052h0.447
		c5.778,4.287,8.669,7.517,8.669,9.687h-0.447C342.834,216.504,339.944,213.276,339.944,211.052z"/>
	<path fill="#6F8379" d="M345.218,108.319h54.873c0.596,0.107,0.895,0.371,0.895,0.794v11.671c0,0.529-0.299,0.794-0.895,0.794
		h-19.482v89.078c0,0.529-0.299,0.794-0.894,0.794H366.13c-0.656,0-0.982-0.265-0.982-0.794v-89.078h-19.93
		c-0.595,0-0.894-0.265-0.894-0.794v-11.671C344.443,108.584,344.741,108.319,345.218,108.319z M350.669,123.642h2.234
		c0.416,0,3.455,2.673,9.116,8.018l-0.894,0.397h-1.341c-0.418,0-3.456-2.672-9.116-8.019V123.642z M356.121,123.642h2.234
		c0.416,0,1.935,1.35,4.558,4.049v1.985h-0.447c-0.417,0-2.533-1.878-6.345-5.637V123.642z M362.02,123.642
		c0.595,0.053,0.894,0.317,0.894,0.794h-0.894V123.642z M367.918,213.434h1.787c0.416,0,3.455,2.699,9.116,8.099v0.396h-1.877
		c-0.357,0-3.367-2.672-9.026-8.019V213.434z M373.369,213.434h2.234c0.416,0,3.455,2.699,9.116,8.099v0.396h-2.324
		c-0.357,0-3.366-2.672-9.026-8.019V213.434z M378.821,213.434h2.234c0.416,0,3.454,2.699,9.115,8.099v0.396h-2.323
		c-0.418,0-3.427-2.672-9.026-8.019V213.434z M382.843,126.023h0.446c0.417,0,3.455,2.699,9.116,8.098v1.588h-0.446
		c-0.418,0-3.457-2.673-9.116-8.019V126.023z M382.843,130.866h0.446c0.417,0,3.455,2.7,9.116,8.098v1.984h-0.446
		c-0.418,0-3.457-2.672-9.116-8.018V130.866z M382.843,135.709h0.446c0.417,0,3.455,2.699,9.116,8.098v1.985h-0.446
		c-0.418,0-3.457-2.699-9.116-8.099V135.709z M382.843,140.949h0.446c0.417,0,3.455,2.699,9.116,8.099v1.587h-0.446
		c-0.418,0-3.457-2.699-9.116-8.098V140.949z M382.843,145.792h0.446c0.417,0,3.455,2.673,9.116,8.018v2.064h-0.446
		c-0.418,0-3.457-2.699-9.116-8.098V145.792z M382.843,150.634h0.446c0.417,0,3.455,2.674,9.116,8.02v2.064h-0.446
		c-0.418,0-3.457-2.699-9.116-8.099V150.634z M382.843,155.875h0.446c0.417,0,3.455,2.674,9.116,8.02v1.666h-0.446
		c-0.418,0-3.457-2.699-9.116-8.098V155.875z M382.843,160.718h0.446c0.417,0,3.455,2.673,9.116,8.018v2.064h-0.446
		c-0.418,0-3.457-2.699-9.116-8.098V160.718z M382.843,165.56h0.446c0.298,0,3.337,2.674,9.116,8.02v1.984h-0.446
		c-0.418,0-3.457-2.672-9.116-8.019V165.56z M382.843,170.8h0.446c0.417,0,3.455,2.674,9.116,8.019v1.588h-0.446
		c-0.418,0-3.457-2.672-9.116-8.019V170.8z M382.843,175.564h0.446c0.417,0,3.455,2.699,9.116,8.099v1.984h-0.446
		c-0.418,0-3.457-2.672-9.116-8.019V175.564z M382.843,180.804h0.446c0.417,0,3.455,2.699,9.116,8.098v1.588h-0.446
		c-0.418,0-3.457-2.672-9.116-8.019V180.804z M382.843,185.647h0.446c0.417,0,3.455,2.699,9.116,8.098v1.588h-0.446
		c-0.418,0-3.457-2.672-9.116-8.019V185.647z M382.843,190.49h0.446c0.417,0,3.455,2.699,9.116,8.098v1.985h-0.446
		c-0.418,0-3.457-2.672-9.116-8.019V190.49z M382.843,195.73h0.446c0.417,0,3.455,2.699,9.116,8.098v1.588h-0.446
		c-0.418,0-3.457-2.699-9.116-8.098V195.73z M382.843,200.573h0.446c0.417,0,3.455,2.699,9.116,8.098v1.191
		c0,0.529-0.299,0.794-0.894,0.794l-8.669-8.099V200.573z M382.843,205.416h0.446c0.417,0,3.455,2.674,9.116,8.019v2.064h-0.446
		c-0.418,0-3.457-2.699-9.116-8.098V205.416z M382.843,210.656h0.446c0.417,0,3.455,2.673,9.116,8.019v1.667h-0.446
		c-0.418,0-3.457-2.699-9.116-8.098V210.656z M384.272,123.642h2.234c0.416,0,3.426,2.673,9.026,8.018v0.397h-2.234
		c-0.417,0-3.427-2.672-9.026-8.019V123.642z M389.635,123.642h2.324c0.416,0,3.425,2.673,9.026,8.018v0.397h-2.234
		c-0.418,0-3.456-2.672-9.116-8.019V123.642z M395.533,123.642h1.877c0.357,0,3.365,2.673,9.026,8.018v0.397h-1.787
		c-0.418,0-3.456-2.672-9.116-8.019V123.642z M400.985,123.642h2.323c0.357,0,3.365,2.673,9.026,8.018v0.397h-2.234
		c-0.417,0-3.456-2.672-9.115-8.019V123.642z M403.309,110.701h0.447c0.357,0,3.365,2.699,9.026,8.098v0.397h-0.447
		c-0.417,0-3.427-2.672-9.026-8.019V110.701z M403.309,114.353h0.447c0.357,0,3.365,2.7,9.026,8.098v1.588h-0.447
		c-0.417,0-3.427-2.699-9.026-8.098V114.353z M403.309,119.196h0.447c0.357,0,3.365,2.673,9.026,8.019v2.064h-0.447
		c-0.417,0-3.427-2.699-9.026-8.098V119.196z"/>
	<path fill="#6F8379" d="M413.229,108.319h15.372c1.012,0,4.468,8.151,10.367,24.452c0.595,0.636,4.08,9.078,10.456,25.326h0.446
		c12.929-33.185,19.691-49.778,20.288-49.778h15.818c0.595,0.107,0.894,0.371,0.894,0.794v101.543c0,0.583-0.299,0.873-0.894,0.873
		h-13.495c-0.656,0-0.983-0.29-0.983-0.873v-65.42h-0.446c-12.93,33.24-20.14,50.918-21.628,53.034h-0.447l-20.823-53.034h-0.447
		v65.42c0,0.583-0.299,0.873-0.894,0.873h-13.584c-0.597,0-0.894-0.29-0.894-0.873V109.113
		C412.453,108.584,412.751,108.319,413.229,108.319z M415.016,213.117h0.447c0.416,0,3.604,2.806,9.563,8.416v0.396h-0.447
		c-0.417,0-3.605-2.805-9.563-8.416V213.117z M419.127,213.117h1.787c0.416,0,3.575,2.806,9.474,8.416v0.396h-1.787
		c-0.418,0-3.575-2.805-9.474-8.416V213.117z M424.578,213.117h0.895c1.727,0,5.331,2.806,10.813,8.416l-0.894,0.396h-1.341
		c-0.417,0-3.575-2.805-9.474-8.416V213.117z M430.388,186.203l9.026,8.416v1.984h-0.446c-6.316-4.869-9.474-8.203-9.474-10.003
		L430.388,186.203z M429.94,156.907c0.895,0.159,1.341,1.218,1.341,3.176c-0.417,0-0.864-0.397-1.341-1.19V156.907z M429.94,162.147
		h0.447c2.74,1.694,4.111,3.546,4.111,5.558c-0.418,0-1.938-1.322-4.559-3.97V162.147z M429.94,166.91h0.447
		c4.826,3.494,7.239,6.3,7.239,8.416h-0.447c-0.357,0-2.771-2.116-7.239-6.352V166.91z M429.94,171.753h0.447
		c0.416,0,3.426,2.674,9.026,8.019v1.984h-0.446c-0.358,0-3.367-2.672-9.027-8.019V171.753z M429.94,176.994h0.447
		c0.416,0,3.426,2.673,9.026,8.019v1.588h-0.446c-0.358,0-3.367-2.673-9.027-8.02V176.994z M429.94,181.756h0.447
		c0.416,0,3.426,2.674,9.026,8.019v1.271c0,0.53-0.299,0.794-0.894,0.794l-8.58-8.019V181.756z M429.94,191.839h0.447
		c0.416,0,3.426,2.674,9.026,8.019v1.588h-0.446c-0.358,0-3.367-2.672-9.027-8.019V191.839z M429.94,196.603h0.447
		c0.416,0,3.426,2.699,9.026,8.098v1.985h-0.446c-0.358,0-3.367-2.672-9.027-8.019V196.603z M429.94,201.446h0.447
		c0.416,0,3.426,2.674,9.026,8.019v2.064h-0.446c-0.358,0-3.367-2.699-9.027-8.098V201.446z M429.94,206.686h0.447
		c0.416,0,3.426,2.673,9.026,8.019v1.588h-0.446c-0.358,0-3.367-2.672-9.027-8.019V206.686z M429.94,211.529h0.447
		c0.416,0,3.426,2.673,9.026,8.019v1.985h-0.446c-0.358,0-3.367-2.673-9.027-8.02V211.529z M435.393,116.734
		c5.72,4.128,8.579,7.49,8.579,10.083C438.252,122.689,435.393,119.329,435.393,116.734z M438.521,124.753
		c5.72,4.287,8.579,7.383,8.579,9.29v0.396C441.38,130.258,438.521,127.029,438.521,124.753z M441.738,132.375
		c5.72,4.395,8.579,7.49,8.579,9.289h-0.447C444.448,137.694,441.738,134.597,441.738,132.375z M444.419,139.997h0.447
		c0.357,0,2.771,2.144,7.238,6.431v0.396c0,0.425-0.446,0.848-1.34,1.271C446.533,144.496,444.419,141.796,444.419,139.997z
		 M447.547,147.697h0.983c0,0.318,0.744,1.112,2.234,2.383v0.396c0,0.371-0.447,0.768-1.341,1.191
		C448.173,149.92,447.547,148.598,447.547,147.697z M452.999,197c0.416,0,3.574,2.832,9.473,8.494v0.794
		c0,0.53-0.299,0.794-0.894,0.794l-9.474-8.813v-0.396C452.224,197.292,452.521,197,452.999,197z M454.786,193.031l9.563,8.813
		v0.396c0,0.371-0.478,0.768-1.43,1.191l-9.474-8.813C453.922,193.56,454.368,193.031,454.786,193.031z M455.232,189.775h0.895
		c0.416,0,3.604,2.832,9.563,8.495v0.794c0,0.53-0.299,0.794-0.894,0.794c-0.418,0-3.605-2.805-9.563-8.415V189.775z
		 M456.663,186.203h0.894c0.357,0,3.515,2.806,9.474,8.416v1.19h-0.895c-0.417,0-3.574-2.805-9.473-8.415V186.203z M459.344,182.154
		l9.474,8.892c-0.478,1.06-0.925,1.588-1.341,1.588l-9.474-8.813v-0.396C458.003,183,458.45,182.578,459.344,182.154z
		 M460.685,178.581l8.579,8.02v1.984h-0.446c-0.418,0-3.575-2.805-9.474-8.416v-0.396
		C459.344,179.402,459.791,179.005,460.685,178.581z M462.025,174.929l7.238,6.827v1.668h-0.446c-0.357,0-2.92-2.275-7.687-6.828
		v-0.873C461.25,175.195,461.548,174.929,462.025,174.929z M463.365,171.357c0.477,0,2.442,1.746,5.898,5.239v1.984h-0.446
		c-0.418,0-2.533-1.878-6.346-5.636v-0.795C462.591,171.622,462.888,171.357,463.365,171.357z M464.349,167.705h0.447
		c0.357,0,1.846,1.35,4.468,4.049v1.588h-0.446c-0.418,0-2.086-1.455-5.005-4.367C464.17,168.447,464.349,168.022,464.349,167.705z
		 M466.583,163.735l2.681,3.175v1.588h-0.446c-0.357,0-1.55-1.058-3.575-3.175C465.658,164.264,466.105,163.735,466.583,163.735z
		 M467.03,160.48h0.894c0.416,0,0.862,0.424,1.34,1.27v1.985h-0.446c-0.478,0-1.072-0.528-1.787-1.588V160.48z M468.37,157.304
		h0.894v1.19h-0.894V157.304z M475.609,213.117h1.341l9.473,8.416l-0.894,0.396h-1.34c-0.418,0-3.575-2.805-9.474-8.416
		L475.609,213.117z M481.062,213.117h1.34c0.416,0,3.575,2.806,9.474,8.416l-0.894,0.396h-1.341c-0.238,0-3.427-2.805-9.563-8.416
		L481.062,213.117z M485.977,213.117h1.787c0.416,0,3.604,2.806,9.563,8.416v0.396h-1.876c-0.357,0-3.517-2.805-9.474-8.416V213.117
		z M489.641,110.701l9.026,8.495v1.191h-0.446c-0.418,0-3.575-2.805-9.474-8.416v-0.477
		C488.806,110.966,489.104,110.701,489.641,110.701z M488.747,115.146h0.446c0.358,0,3.516,2.806,9.474,8.416v1.588h-0.446
		c-0.418,0-3.575-2.805-9.474-8.416V115.146z M489.641,119.99l9.026,8.416v1.191c0,0.529-0.299,0.794-0.894,0.794
		c-6.019-5.187-9.026-8.389-9.026-9.606C488.806,120.255,489.104,119.99,489.641,119.99z M489.641,124.753l9.026,8.495v1.985h-0.446
		c-0.418,0-3.575-2.805-9.474-8.416v-1.271C488.806,125.019,489.104,124.753,489.641,124.753z M488.747,129.993h0.446
		c0.358,0,3.516,2.805,9.474,8.416v1.588h-0.446c-0.418,0-3.575-2.806-9.474-8.415V129.993z M489.641,134.835l9.026,8.416v1.191
		c0,0.529-0.299,0.793-0.894,0.793c-6.019-5.186-9.026-8.388-9.026-9.605C488.806,135.101,489.104,134.835,489.641,134.835z
		 M489.641,139.599l9.026,8.495v1.985h-0.446c-0.418,0-3.575-2.805-9.474-8.416v-1.191
		C488.806,139.891,489.104,139.599,489.641,139.599z M488.747,144.839h0.446c0.358,0,3.516,2.807,9.474,8.416v1.667h-0.446
		c-0.418,0-3.575-2.831-9.474-8.495V144.839z M489.641,149.682l9.026,8.415v1.985h-0.446c-0.418,0-3.575-2.805-9.474-8.415v-1.191
		C488.806,149.948,489.104,149.682,489.641,149.682z M489.641,154.525l9.026,8.416v1.984h-0.446c-0.418,0-3.575-2.805-9.474-8.416
		v-1.189C488.806,154.791,489.104,154.525,489.641,154.525z M488.747,159.685h0.446c0.358,0,3.516,2.807,9.474,8.416v1.668h-0.446
		c-0.418,0-3.575-2.832-9.474-8.496V159.685z M489.641,164.529l9.026,8.416v1.984h-0.446c-0.418,0-3.575-2.805-9.474-8.416v-1.19
		C488.806,164.794,489.104,164.529,489.641,164.529z M488.747,169.769h0.446c0.358,0,3.516,2.806,9.474,8.415v1.588h-0.446
		c-0.418,0-3.575-2.805-9.474-8.415V169.769z M488.747,174.533h0.446c0.358,0,3.516,2.832,9.474,8.494v1.588h-0.446
		c-0.418,0-3.575-2.805-9.474-8.416V174.533z M489.641,179.375l9.026,8.416v1.984h-0.446c-0.418,0-3.575-2.805-9.474-8.415v-1.191
		C488.806,179.64,489.104,179.375,489.641,179.375z M489.641,184.218l9.026,8.813v1.588h-0.446c-0.418,0-3.575-2.805-9.474-8.416
		v-1.19C488.806,184.483,489.104,184.218,489.641,184.218z M489.641,189.378l9.026,8.495v1.588h-0.446
		c-0.418,0-3.575-2.805-9.474-8.416v-0.794C488.806,189.669,489.104,189.378,489.641,189.378z M489.641,194.221l9.026,8.416v1.19
		c0,0.583-0.299,0.873-0.894,0.873l-9.026-8.494v-1.191C488.806,194.487,489.104,194.221,489.641,194.221z M488.747,199.461h0.446
		c0.358,0,3.516,2.806,9.474,8.415v1.588h-0.446c-0.418,0-3.575-2.805-9.474-8.415V199.461z M489.641,204.304l9.026,8.415v1.191
		c0,0.529-0.299,0.794-0.894,0.794c-6.019-5.451-9.026-8.521-9.026-9.21v-0.396C488.806,204.57,489.104,204.304,489.641,204.304z
		 M489.641,209.068c6.018,5.558,9.026,8.495,9.026,8.813v1.667h-0.446c-0.418,0-3.575-2.831-9.474-8.495v-1.19
		C488.806,209.333,489.104,209.068,489.641,209.068z"/>
	<path fill="#6F8379" d="M526.015,108.16h12.69c1.252,1.111,4.141,11.724,8.669,31.836c1.191,3.651,7.239,27.338,18.143,71.056
		l-0.894,0.397h-14.121c-0.894,0-2.712-6.457-5.451-19.372h-25.382c-2.741,11.273-4.558,17.731-5.451,19.372H499.65l-0.894-0.397
		l26.364-102.495L526.015,108.16z M501.438,213.434h0.983c5.72,4.976,8.579,7.675,8.579,8.099v0.396h-0.446
		c-0.418,0-3.456-2.699-9.116-8.098V213.434z M505.549,213.434h2.323c0.357,0,3.365,2.699,9.026,8.099v0.396h-2.233
		c-0.418,0-3.457-2.699-9.116-8.098V213.434z M511.447,213.434h1.877c0.357,0,3.365,2.699,9.026,8.099v0.396h-1.787
		c-0.418,0-3.457-2.699-9.116-8.098V213.434z M517.346,211.45l9.563,8.892v0.397c0,0.37-0.446,0.768-1.341,1.19l-9.115-8.495v-1.19
		C516.57,211.715,516.868,211.45,517.346,211.45z M518.329,207.797c0.357,0,3.515,2.832,9.473,8.495v0.794
		c0,0.529-0.299,0.794-0.894,0.794c-0.417,0-3.605-2.831-9.563-8.495v-0.794C517.465,208.063,517.793,207.797,518.329,207.797z
		 M518.775,203.749h0.447c0.357,0,3.515,2.832,9.474,8.495v0.794c0,0.529-0.299,0.794-0.895,0.794l-9.473-8.813
		C518.626,204.49,518.775,204.066,518.775,203.749z M520.563,199.302l9.563,8.893c-0.299,0.476-0.447,1.031-0.447,1.667h-0.536
		c-0.357,0-3.516-2.831-9.474-8.495v-1.191C519.728,199.594,520.026,199.302,520.563,199.302z M520.563,195.73h0.894
		c0.416,0,3.604,2.806,9.563,8.415v0.397c0,0.424-0.447,0.847-1.341,1.271l-9.115-8.495V195.73z M531.913,142.855l-8.669,35.885
		h18.231l-9.115-35.885H531.913z M523.244,194.063h1.877c0.357,0,3.365,2.699,9.026,8.098v0.396h-1.787
		c-0.418,0-3.456-2.699-9.116-8.098V194.063z M526.908,173.897c0.416,0,1.341,0.821,2.771,2.461v0.397h-1.877
		c-0.478,0-1.072-0.529-1.787-1.588v-0.477C526.073,174.163,526.372,173.897,526.908,173.897z M528.249,169.451l7.328,6.907v0.397
		h-2.323c-0.418,0-2.533-1.879-6.346-5.637C527.385,170.007,527.831,169.451,528.249,169.451z M529.143,165.482l9.116,8.415v1.667
		h-0.447c-0.417,0-3.605-2.83-9.563-8.494v-0.795C528.367,165.747,528.665,165.482,529.143,165.482z M528.696,194.063h2.323
		c0.416,0,3.426,2.699,9.026,8.098v0.396h-2.234c-0.417,0-3.456-2.699-9.115-8.098V194.063z M529.143,161.83h0.983
		c4.527,3.334,6.792,5.743,6.792,7.225v0.396h-0.447c-0.417,0-2.859-2.144-7.328-6.431V161.83z M530.572,157.383h0.447
		c3.038,1.959,4.558,3.97,4.558,6.034h-0.446c-3.338-2.488-5.005-4.102-5.005-4.844
		C530.423,158.046,530.572,157.649,530.572,157.383z M531.467,153.334h0.446c0.894,0,1.488,1.085,1.787,3.255h-0.446
		c-0.478,0-1.072-0.556-1.787-1.667V153.334z M534.147,194.063h2.323c0.357,0,3.366,2.699,9.027,8.098l-0.895,0.396h-1.34
		c-0.418,0-3.456-2.699-9.116-8.098V194.063z M540.046,194.063h1.877c1.488,0.688,2.234,1.905,2.234,3.651h-0.447
		c-0.357,0-1.579-1.084-3.664-3.255V194.063z M542.369,111.415h0.447c0.416,0,3.276,2.541,8.58,7.622v0.397h-0.447
		c-0.357,0-3.218-2.541-8.58-7.622V111.415z M543.71,116.258h0.447c6.077,4.446,9.115,7.808,9.115,10.083h-0.446
		C546.749,121.895,543.71,118.535,543.71,116.258z M545.944,122.292c5.778,4.817,8.669,8.046,8.669,9.686v0.396h-0.446
		c-6.078-4.657-9.116-7.886-9.116-9.686L545.944,122.292z M546.928,129.12h0.446c6.018,4.553,9.026,7.78,9.026,9.687h-0.446
		C549.936,134.253,546.928,131.025,546.928,129.12z M548.715,135.154c6.077,4.658,9.116,7.754,9.116,9.289v0.873h-0.447
		c-5.779-4.234-8.669-7.463-8.669-9.686V135.154z M550.056,141.664h0.446c6.078,4.658,9.116,8.019,9.116,10.083h-0.447
		C553.094,147.3,550.056,143.94,550.056,141.664z M551.933,148.492h0.446c0.357,0,3.218,2.567,8.58,7.701v1.984
		C554.94,153.626,551.933,150.397,551.933,148.492z M552.826,213.832h0.446c0.357,0,3.218,2.567,8.58,7.701h-0.447
		C561.048,221.533,558.188,218.965,552.826,213.832z M553.272,154.525h0.447c6.077,4.5,9.116,7.86,9.116,10.083H562.3
		C556.28,160.162,553.272,156.801,553.272,154.525z M555.061,161.432h0.446c6.077,4.553,9.116,7.78,9.116,9.687h-0.447
		C558.099,166.567,555.061,163.337,555.061,161.432z M556.848,213.434h1.43c0.357,0,3.365,2.699,9.026,8.099v0.396h-2.233
		c-0.418,0-3.457-2.699-9.116-8.098L556.848,213.434z M556.848,167.466c6.077,4.658,9.116,7.754,9.116,9.289v0.396h-0.447
		c-5.779-4.393-8.669-7.355-8.669-8.892V167.466z M558.277,173.897h0.447c6.017,4.446,9.026,7.808,9.026,10.083h-0.447
		C561.285,179.534,558.277,176.173,558.277,173.897z M560.065,180.804h0.446c6.077,4.553,9.116,7.78,9.116,9.686h-0.447
		C563.104,185.938,560.065,182.709,560.065,180.804z M561.853,186.837c6.077,4.446,9.116,7.809,9.116,10.083h-0.447
		c-5.78-4.393-8.669-7.355-8.669-8.892V186.837z M561.853,213.434h1.877c0.357,0,3.365,2.699,9.026,8.099v0.396h-1.787
		c-0.418,0-3.457-2.699-9.116-8.098V213.434z M563.282,193.269h0.447c6.017,4.445,9.026,7.808,9.026,10.082h-0.447
		C566.29,198.906,563.282,195.545,563.282,193.269z M565.07,200.175h0.446c5.778,4.395,8.669,7.332,8.669,8.813v0.874
		C568.108,205.256,565.07,202.029,565.07,200.175z M566.41,206.209h0.447c6.077,4.446,9.115,7.808,9.115,10.083h-0.446
		C569.449,211.794,566.41,208.432,566.41,206.209z M568.198,212.64h0.536c5.72,4.394,8.579,7.357,8.579,8.893l-0.894,0.396
		c-0.418,0-3.456-2.699-9.116-8.098v-0.397C567.899,213.434,568.198,213.17,568.198,212.64z"/>
	<path fill="#6F8379" d="M563.462,108.319h54.873c0.596,0.107,0.895,0.371,0.895,0.794v11.671c0,0.529-0.299,0.794-0.895,0.794
		h-19.482v89.078c0,0.529-0.299,0.794-0.894,0.794h-13.585c-0.656,0-0.982-0.265-0.982-0.794v-89.078h-19.93
		c-0.595,0-0.894-0.265-0.894-0.794v-11.671C562.688,108.584,562.985,108.319,563.462,108.319z M568.913,123.642h2.234
		c0.416,0,3.455,2.673,9.116,8.018l-0.894,0.397h-1.341c-0.418,0-3.456-2.672-9.116-8.019V123.642z M574.365,123.642h2.234
		c0.416,0,1.935,1.35,4.558,4.049v1.985h-0.447c-0.417,0-2.533-1.878-6.345-5.637V123.642z M580.264,123.642
		c0.595,0.053,0.894,0.317,0.894,0.794h-0.894V123.642z M586.162,213.434h1.787c0.416,0,3.455,2.699,9.116,8.099v0.396h-1.877
		c-0.357,0-3.367-2.672-9.026-8.019V213.434z M591.613,213.434h2.234c0.416,0,3.455,2.699,9.116,8.099v0.396h-2.324
		c-0.357,0-3.366-2.672-9.026-8.019V213.434z M597.065,213.434h2.234c0.416,0,3.454,2.699,9.115,8.099v0.396h-2.323
		c-0.418,0-3.427-2.672-9.026-8.019V213.434z M601.087,126.023h0.446c0.417,0,3.455,2.699,9.116,8.098v1.588h-0.446
		c-0.418,0-3.457-2.673-9.116-8.019V126.023z M601.087,130.866h0.446c0.417,0,3.455,2.7,9.116,8.098v1.984h-0.446
		c-0.418,0-3.457-2.672-9.116-8.018V130.866z M601.087,135.709h0.446c0.417,0,3.455,2.699,9.116,8.098v1.985h-0.446
		c-0.418,0-3.457-2.699-9.116-8.099V135.709z M601.087,140.949h0.446c0.417,0,3.455,2.699,9.116,8.099v1.587h-0.446
		c-0.418,0-3.457-2.699-9.116-8.098V140.949z M601.087,145.792h0.446c0.417,0,3.455,2.673,9.116,8.018v2.064h-0.446
		c-0.418,0-3.457-2.699-9.116-8.098V145.792z M601.087,150.634h0.446c0.417,0,3.455,2.674,9.116,8.02v2.064h-0.446
		c-0.418,0-3.457-2.699-9.116-8.099V150.634z M601.087,155.875h0.446c0.417,0,3.455,2.674,9.116,8.02v1.666h-0.446
		c-0.418,0-3.457-2.699-9.116-8.098V155.875z M601.087,160.718h0.446c0.417,0,3.455,2.673,9.116,8.018v2.064h-0.446
		c-0.418,0-3.457-2.699-9.116-8.098V160.718z M601.087,165.56h0.446c0.298,0,3.337,2.674,9.116,8.02v1.984h-0.446
		c-0.418,0-3.457-2.672-9.116-8.019V165.56z M601.087,170.8h0.446c0.417,0,3.455,2.674,9.116,8.019v1.588h-0.446
		c-0.418,0-3.457-2.672-9.116-8.019V170.8z M601.087,175.564h0.446c0.417,0,3.455,2.699,9.116,8.099v1.984h-0.446
		c-0.418,0-3.457-2.672-9.116-8.019V175.564z M601.087,180.804h0.446c0.417,0,3.455,2.699,9.116,8.098v1.588h-0.446
		c-0.418,0-3.457-2.672-9.116-8.019V180.804z M601.087,185.647h0.446c0.417,0,3.455,2.699,9.116,8.098v1.588h-0.446
		c-0.418,0-3.457-2.672-9.116-8.019V185.647z M601.087,190.49h0.446c0.417,0,3.455,2.699,9.116,8.098v1.985h-0.446
		c-0.418,0-3.457-2.672-9.116-8.019V190.49z M601.087,195.73h0.446c0.417,0,3.455,2.699,9.116,8.098v1.588h-0.446
		c-0.418,0-3.457-2.699-9.116-8.098V195.73z M601.087,200.573h0.446c0.417,0,3.455,2.699,9.116,8.098v1.191
		c0,0.529-0.299,0.794-0.894,0.794l-8.669-8.099V200.573z M601.087,205.416h0.446c0.417,0,3.455,2.674,9.116,8.019v2.064h-0.446
		c-0.418,0-3.457-2.699-9.116-8.098V205.416z M601.087,210.656h0.446c0.417,0,3.455,2.673,9.116,8.019v1.667h-0.446
		c-0.418,0-3.457-2.699-9.116-8.098V210.656z M602.517,123.642h2.234c0.416,0,3.426,2.673,9.026,8.018v0.397h-2.234
		c-0.417,0-3.427-2.672-9.026-8.019V123.642z M607.879,123.642h2.324c0.416,0,3.425,2.673,9.026,8.018v0.397h-2.234
		c-0.418,0-3.456-2.672-9.116-8.019V123.642z M613.777,123.642h1.877c0.357,0,3.365,2.673,9.026,8.018v0.397h-1.787
		c-0.418,0-3.456-2.672-9.116-8.019V123.642z M619.229,123.642h2.323c0.357,0,3.365,2.673,9.026,8.018v0.397h-2.234
		c-0.417,0-3.456-2.672-9.115-8.019V123.642z M621.553,110.701H622c0.357,0,3.365,2.699,9.026,8.098v0.397h-0.447
		c-0.417,0-3.427-2.672-9.026-8.019V110.701z M621.553,114.353H622c0.357,0,3.365,2.7,9.026,8.098v1.588h-0.447
		c-0.417,0-3.427-2.699-9.026-8.098V114.353z M621.553,119.196H622c0.357,0,3.365,2.673,9.026,8.019v2.064h-0.447
		c-0.417,0-3.427-2.699-9.026-8.098V119.196z"/>
	<path fill="#6F8379" d="M629.686,108.319h43.97c0.655,0.107,0.983,0.371,0.983,0.794v11.671c0,0.529-0.328,0.794-0.983,0.794
		h-29.402v29.852h21.717c0.595,0.106,0.894,0.371,0.894,0.793v11.672c0,0.529-0.299,0.793-0.894,0.793h-21.717v33.504h31.727
		c0.595,0.054,0.894,0.317,0.894,0.794v11.671c0,0.529-0.299,0.794-0.894,0.794h-46.294c-0.597,0-0.895-0.265-0.895-0.794V109.113
		C628.91,108.584,629.208,108.319,629.686,108.319z M631.473,213.434h0.983c0.357,0,3.365,2.699,9.026,8.099v0.396h-0.894
		c-0.418,0-3.457-2.672-9.116-8.019V213.434z M636.03,213.434h1.788c0.416,0,3.454,2.699,9.115,8.099v0.396h-1.787
		c-0.418,0-3.456-2.672-9.116-8.019V213.434z M641.482,213.434h2.234l9.115,8.099v0.396h-2.234c-0.417,0-3.456-2.672-9.115-8.019
		V213.434z M646.934,126.42l9.026,8.495v1.19c0,0.53-0.299,0.794-0.894,0.794l-9.026-8.416v-1.27
		C646.099,126.686,646.397,126.42,646.934,126.42z M646.04,131.66h0.447c0.416,0,3.574,2.832,9.473,8.496v1.588h-0.446
		c-0.357,0-3.517-2.805-9.474-8.416V131.66z M646.04,136.503h0.447c0.416,0,3.574,2.832,9.473,8.494v1.191
		c0,0.529-0.299,0.794-0.894,0.794l-9.026-8.813V136.503z M646.934,141.346l8.133,7.701v0.396h-2.234
		c-0.357,0-2.622-2.036-6.792-6.112v-1.191C646.099,141.611,646.397,141.346,646.934,141.346z M646.04,146.585h0.447
		c0.416,0,1.31,0.822,2.681,2.462v0.396h-1.787c-0.418,0-0.864-0.423-1.341-1.271V146.585z M646.934,166.751
		c0.416,0,3.426,2.674,9.026,8.019v1.271c0,0.529-0.299,0.794-0.894,0.794l-9.026-8.495v-0.794
		C646.099,167.017,646.397,166.751,646.934,166.751z M646.934,171.198l9.026,8.415v2.064h-0.446c-0.357,0-3.517-2.831-9.474-8.495
		v-1.19C646.099,171.462,646.397,171.198,646.934,171.198z M646.04,176.437h0.447c0.416,0,3.574,2.807,9.473,8.416v1.588h-0.446
		c-0.357,0-3.517-2.805-9.474-8.416V176.437z M646.04,181.201h0.447c0.416,0,3.574,2.832,9.473,8.495v1.191
		c0,0.529-0.299,0.794-0.894,0.794l-9.026-8.416V181.201z M646.934,186.043l9.026,8.495v1.191c0,0.529-0.299,0.794-0.894,0.794
		l-9.026-8.416v-1.19C646.099,186.335,646.397,186.043,646.934,186.043z M646.04,191.284h0.447c0.416,0,2.233,1.615,5.451,4.843
		v0.397h-1.787c-0.418,0-1.788-1.191-4.111-3.573V191.284z M646.934,123.642h1.787c0.417,0,3.455,2.673,9.116,8.018v0.397h-1.877
		c-0.357,0-3.366-2.672-9.026-8.019V123.642z M646.934,213.434h2.234c0.416,0,3.455,2.699,9.116,8.099v0.396h-2.324
		c-0.357,0-3.366-2.672-9.026-8.019V213.434z M650.598,166.751h1.788c0.416,0,3.425,2.674,9.026,8.019v0.397h-1.788
		c-0.417,0-3.427-2.672-9.026-8.02V166.751z M652.386,123.642h1.787c0.416,0,3.455,2.673,9.116,8.018v0.397h-1.877
		c-0.357,0-3.367-2.672-9.026-8.019V123.642z M652.832,213.434h1.788c0.416,0,3.454,2.699,9.115,8.099v0.396h-1.877
		c-0.357,0-3.366-2.672-9.026-8.019V213.434z M655.96,166.751h1.877c0.477,0,3.634,2.674,9.474,8.019v0.397h-2.234
		c-0.418,0-3.456-2.672-9.116-8.02V166.751z M657.837,123.642h2.234c0.416,0,3.455,2.673,9.116,8.018v0.397h-2.324
		c-0.357,0-3.366-2.672-9.026-8.019V123.642z M658.284,213.434h2.234c0.416,0,3.454,2.699,9.115,8.099v0.396h-2.323
		c-0.357,0-3.367-2.672-9.026-8.019V213.434z M661.858,166.751h1.877c0.357,0,3.365,2.674,9.026,8.019v0.397h-2.234
		c-5.422-4.34-8.312-7.013-8.669-8.02V166.751z M663.735,123.642h1.787c0.417,0,3.455,2.673,9.116,8.018v0.397h-1.877
		c-0.357,0-3.366-2.672-9.026-8.019V123.642z M663.735,213.434h2.234c0.416,0,3.455,2.699,9.116,8.099v0.396h-2.324
		c-0.357,0-3.366-2.672-9.026-8.019V213.434z M667.311,166.751h1.877c0.357,0,3.365,2.674,9.026,8.019v0.397h-1.788
		c-0.417,0-3.456-2.672-9.115-8.02V166.751z M668.74,156.669h0.447c0.357,0,3.515,2.805,9.473,8.415v1.271
		c0,0.529-0.299,0.793-0.894,0.793c0-0.422-3.009-3.386-9.026-8.891V156.669z M669.634,161.511l9.026,8.416v1.271
		c0,0.529-0.299,0.794-0.894,0.794l-9.026-8.495v-1.19C668.799,161.777,669.098,161.511,669.634,161.511z M669.188,123.642h2.234
		c0.416,0,3.275,2.541,8.579,7.622h0.447v0.794h-2.234c-0.418,0-3.427-2.672-9.026-8.019V123.642z M669.634,213.434h1.788
		c0.416,0,3.425,2.699,9.026,8.099v0.396h-1.788c-0.417,0-3.427-2.672-9.026-8.019V213.434z M674.639,123.642h2.234
		c0.416,0,3.426,2.673,9.026,8.018v0.397h-2.234c-0.417,0-3.427-2.672-9.026-8.019V123.642z M675.086,213.434h2.234
		c0.416,0,3.425,2.699,9.026,8.099v0.396h-2.234c-0.418,0-3.427-2.672-9.026-8.019V213.434z M676.873,110.701h0.447
		c0.416,0,3.425,2.699,9.026,8.098v0.397h-0.447c-0.357,0-3.366-2.672-9.026-8.019V110.701z M676.873,113.956h0.447
		c0.416,0,3.425,2.7,9.026,8.098v1.985h-0.447c-0.357,0-3.366-2.699-9.026-8.098V113.956z M676.873,119.196h0.447
		c0.416,0,3.425,2.673,9.026,8.019v1.667h-0.447c-0.357,0-3.366-2.699-9.026-8.098V119.196z M678.66,200.573h0.447
		c0.416,0,3.455,2.699,9.116,8.098v1.588h-0.447c-0.418,0-3.456-2.699-9.116-8.098V200.573z M678.66,205.416h0.447
		c0.416,0,3.455,2.674,9.116,8.019v1.667h-0.447c-0.418,0-3.456-2.699-9.116-8.098V205.416z M678.66,210.258h0.447
		c0.416,0,3.455,2.674,9.116,8.019v2.064h-0.447c-0.418,0-3.456-2.699-9.116-8.098V210.258z"/>
</g>
<g opacity="0.5">
	<g>
		<path fill="#838383" d="M85.197,130.885c-0.833-0.832-1.988-1.312-3.165-1.312s-2.333,0.479-3.165,1.312
			c-0.833,0.833-1.312,1.988-1.312,3.166c0,1.177,0.479,2.332,1.312,3.165c0.833,0.832,1.988,1.312,3.165,1.312
			s2.333-0.479,3.165-1.312c0.833-0.833,1.312-1.988,1.312-3.165C86.509,132.874,86.03,131.718,85.197,130.885z"/>
	</g>
</g>
</svg>
