<?xml version="1.0" encoding="utf-8"?>
<!-- Generator: Adobe Illustrator 16.0.0, SVG Export Plug-In . SVG Version: 6.00 Build 0)  -->
<!DOCTYPE svg PUBLIC "-//W3C//DTD SVG 1.1//EN" "http://www.w3.org/Graphics/SVG/1.1/DTD/svg11.dtd">
<svg version="1.1" id="Layer_1" xmlns="http://www.w3.org/2000/svg" xmlns:xlink="http://www.w3.org/1999/xlink" x="0px" y="0px"
	 width="841.89px" height="595.28px" viewBox="0 0 841.89 595.28" enable-background="new 0 0 841.89 595.28" xml:space="preserve">
<g opacity="0.5">
	<g>
		<path fill="#838383" d="M180.226,276.896c-0.182-0.025-0.364-0.041-0.551-0.041h-10.405c6.087-13.839,10.121-28.459,12.004-43.557
			l1.769-14.169c0.227-1.81-0.684-3.57-2.276-4.404c-1.591-0.833-3.524-0.56-4.835,0.68l-1.422,1.347
			c-5.918,5.604-11.2,11.745-15.806,18.331c3.733-18.272,8.533-36.74,13.75-48.335l0.021-0.049c0.805-1.792,0.323-3.912-1.174-5.16
			c-1.495-1.248-3.629-1.31-5.192-0.15c-8.446,6.269-16.044,13.717-22.56,22.045c1.188-10.242,3.944-20.331,8.158-29.664
			c0.755-1.672,0.391-3.648-0.906-4.928c-1.298-1.28-3.247-1.585-4.861-0.761l-7.861,4.018
			c-12.235,6.252-20.697,17.632-23.42,30.896c-5.856-6.871-13.039-12.473-21.172-16.436l-11.444-5.577
			c-1.666-0.811-3.656-0.434-4.924,0.936c-1.269,1.367-1.526,3.415-0.635,5.065l0.766,1.417
			c7.838,14.529,13.763,29.937,17.699,45.95c-2.889-2.196-5.987-4.117-9.271-5.717l-9.598-4.677
			c-1.666-0.812-3.657-0.435-4.925,0.935c-1.267,1.369-1.523,3.416-0.633,5.065l0.641,1.188
			c7.736,14.337,13.244,29.698,16.408,45.71H74.244c-2.347,0-4.251,1.941-4.251,4.334v71.737c0,20.194,16.116,36.626,35.923,36.626
			h42.087c5.436,0,10.589-1.245,15.213-3.456c-0.896-0.728-1.256-2.048-0.135-3.062c0.266-0.241,0.536-0.479,0.808-0.717
			c0.608-0.564,1.17-1.164,1.708-1.78c-0.161-0.041-0.321-0.084-0.483-0.124c-0.268,0.068-0.54,0.127-0.815,0.173
			c-0.784,0.134-1.61-0.232-2.159-0.812c-1.414-0.248-2.842-0.408-4.288-0.437c-0.252-0.005-0.491-0.03-0.724-0.063
			c-2.857,1.033-5.924,1.609-9.125,1.609h-42.087c-15.119,0-27.42-12.543-27.42-27.958v-47.898h58.454
			c2.348,0,4.252-1.938,4.252-4.335c0-2.393-1.904-4.333-4.252-4.333H78.495v-10.837h84.032c0.004,0,0.011,0.001,0.015,0.001
			c0.004,0,0.008-0.001,0.012-0.001h12.871v23.489c2.269-0.353,4.798,0.604,5.752,3.367c2.597,7.521,1.467,15.509,2.75,23.159
			v-44.454C183.355,286.127,182.275,281.258,180.226,276.896z M122.215,212.341c-0.001-13.018,6.669-24.806,17.56-31.32
			c-3.549,10.888-5.397,22.395-5.397,33.829v1.207c0,0.273,0.027,0.537,0.075,0.795c-1.292,2.214-2.52,4.467-3.667,6.764
			c-0.865,1.732-1.685,3.49-2.464,5.264c-1.456-5.329-3.56-10.47-6.283-15.308C122.151,213.182,122.215,212.768,122.215,212.341z
			 M96.237,276.855c-2.56-13.675-6.735-26.907-12.463-39.494c14.419,7.813,23.922,22.911,24.927,39.494H96.237z M118.096,276.855
			h-0.881c-0.488-9.685-3.391-19.071-8.483-27.308c-0.853-1.381-1.769-2.713-2.729-4.008c-3.138-17.769-8.564-34.927-16.184-51.157
			l0.001,0c19.536,9.52,32.206,29.858,32.396,51.911C119.558,256.244,118.159,266.543,118.096,276.855z M145.762,258.993
			c-2.315,5.759-4.198,11.724-5.627,17.862h-13.534c0.194-29.4,12.011-57.479,32.293-77.879
			c-6.948,22.388-11.629,50.345-13.124,59.941C145.767,258.941,145.767,258.967,145.762,258.993z M159.895,276.855h-11.006
			c4.344-17.241,12.577-32.977,24.144-46.197l-0.194,1.547C170.899,247.749,166.545,262.754,159.895,276.855z"/>
		<path fill="#838383" d="M178.942,348.038c-0.827,0.457-1.643,0.933-2.426,1.484c-0.367,0.258-0.731,0.451-1.092,0.596v2.809
			c0,1.362-0.101,2.7-0.287,4.013c2.605-0.388,5.218-0.002,7.904,0.632c0.009-0.007,0.016-0.012,0.024-0.016
			c0.202-0.129,0.403-0.217,0.599-0.272c0.167-1.431,0.262-2.883,0.262-4.356v-5.297c-0.927,0.71-2.177,1.036-3.353,0.946
			C179.949,348.53,179.414,348.333,178.942,348.038z"/>
	</g>
</g>
<text transform="matrix(1.1257 0 0 1 145.2192 389.5527)" fill="#6F8379" font-family="'SunsetBoulevard'" font-size="162.5953">apartmate</text>
<g opacity="0.5">
	<g>
		<path fill="#838383" d="M155.189,298.509c-0.833-0.832-1.988-1.312-3.165-1.312s-2.333,0.479-3.165,1.312
			c-0.833,0.833-1.312,1.988-1.312,3.166c0,1.177,0.479,2.332,1.312,3.165c0.833,0.832,1.988,1.312,3.165,1.312
			s2.333-0.479,3.165-1.312c0.833-0.833,1.312-1.988,1.312-3.165C156.501,300.497,156.022,299.342,155.189,298.509z"/>
	</g>
</g>
</svg>
