<?xml version="1.0" encoding="utf-8"?>
<!-- Generator: Adobe Illustrator 16.0.0, SVG Export Plug-In . SVG Version: 6.00 Build 0)  -->
<!DOCTYPE svg PUBLIC "-//W3C//DTD SVG 1.1//EN" "http://www.w3.org/Graphics/SVG/1.1/DTD/svg11.dtd">
<svg version="1.1" id="Capa_1" xmlns="http://www.w3.org/2000/svg" xmlns:xlink="http://www.w3.org/1999/xlink" x="0px" y="0px"
	 width="512px" height="512px" viewBox="0 0 512 512" enable-background="new 0 0 512 512" xml:space="preserve">
<g>
	<g>
		<path fill="#828282" d="M203.07,299.932c-1.859-1.859-4.439-2.93-7.069-2.93s-5.21,1.07-7.07,2.93
			c-1.861,1.86-2.93,4.44-2.93,7.07s1.07,5.21,2.93,7.07c1.86,1.859,4.44,2.93,7.07,2.93s5.21-1.07,7.069-2.93
			c1.861-1.86,2.931-4.44,2.931-7.07S204.93,301.792,203.07,299.932z"/>
	</g>
</g>
<g>
	<g>
		<path fill="#828282" d="M258.001,252.002h-24.475c14.316-31.929,23.805-65.657,28.236-100.487l4.159-32.69
			c0.531-4.175-1.608-8.235-5.353-10.158c-3.745-1.924-8.291-1.295-11.374,1.568l-3.346,3.107
			c-13.921,12.931-26.344,27.097-37.179,42.292c8.781-42.155,20.071-84.765,32.344-111.514l0.051-0.111
			c1.895-4.134,0.761-9.026-2.76-11.905c-3.519-2.879-8.538-3.021-12.216-0.345c-19.866,14.461-37.74,31.645-53.065,50.859
			c2.791-23.629,9.275-46.901,19.188-68.436c1.775-3.858,0.921-8.416-2.131-11.369c-3.053-2.952-7.635-3.656-11.434-1.753
			l-18.491,9.267c-28.781,14.423-48.685,40.68-55.092,71.28C91.289,65.755,74.391,52.831,55.261,43.689L28.34,30.822
			c-3.916-1.872-8.6-1.002-11.582,2.156c-2.983,3.158-3.586,7.88-1.492,11.686l1.798,3.269
			c18.441,33.52,32.376,69.065,41.634,106.009c-6.792-5.065-14.081-9.497-21.808-13.19l-22.577-10.79
			c-3.919-1.874-8.601-1.002-11.582,2.157c-2.982,3.158-3.585,7.881-1.49,11.687l1.507,2.74
			c18.198,33.077,31.154,68.513,38.596,105.456H10.001c-5.522,0-10,4.477-10,10v165.5c0,46.594,37.907,84.5,84.5,84.5h99
			c46.594,0,84.5-37.907,84.5-84.5v-165.5C268.001,256.479,263.523,252.002,258.001,252.002z M242.376,145.425l-0.454,3.566
			c-4.562,35.86-14.805,70.481-30.448,103.011h-25.89C195.802,212.227,215.168,175.925,242.376,145.425z M209.122,72.332
			c-16.342,51.649-27.354,116.147-30.872,138.289c-0.009,0.057-0.01,0.114-0.019,0.171c-5.447,13.286-9.876,27.051-13.238,41.211
			H133.16C133.615,184.176,161.413,119.398,209.122,72.332z M122.841,103.165c-0.002-30.034,15.686-57.227,41.305-72.256
			c-8.349,25.12-12.697,51.667-12.697,78.044v2.787c0,0.627,0.065,1.239,0.176,1.834c-3.039,5.109-5.927,10.307-8.623,15.604
			c-2.035,3.998-3.964,8.05-5.797,12.145c-3.424-12.293-8.373-24.154-14.78-35.316C122.692,105.105,122.841,104.152,122.841,103.165
			z M46.634,61.732l0.003,0.002c45.957,21.964,75.76,68.883,76.205,119.762c-6.251,22.956-9.541,46.72-9.689,70.506h-2.073
			c-1.148-22.343-7.975-43.997-19.954-63c-2.008-3.186-4.162-6.261-6.422-9.245C77.324,138.762,64.558,99.177,46.634,61.732z
			 M32.416,160.89c33.92,18.024,56.27,52.856,58.636,91.112H61.734C55.714,220.455,45.891,189.928,32.416,160.89z M248.001,427.502
			c0,35.565-28.935,64.5-64.5,64.5h-99c-35.565,0-64.5-28.934-64.5-64.5v-110.5h137.5c5.522,0,10-4.477,10-10s-4.478-10-10-10
			h-137.5v-25h152.933c0.039,0,0.078,0,0.117,0h44.615c0.011,0,0.023,0.002,0.034,0.002c0.01,0,0.019-0.002,0.028-0.002h30.273
			V427.502z"/>
	</g>
</g>
</svg>
