<?xml version="1.0" encoding="utf-8"?>
<!-- Generator: Adobe Illustrator 16.0.0, SVG Export Plug-In . SVG Version: 6.00 Build 0)  -->
<!DOCTYPE svg PUBLIC "-//W3C//DTD SVG 1.1//EN" "http://www.w3.org/Graphics/SVG/1.1/DTD/svg11.dtd">
<svg version="1.1" id="Layer_1" xmlns="http://www.w3.org/2000/svg" xmlns:xlink="http://www.w3.org/1999/xlink" x="0px" y="0px"
	 width="537.157px" height="103.149px" viewBox="0 0 537.157 103.149" enable-background="new 0 0 537.157 103.149"
	 xml:space="preserve">
<g>
	<path d="M-114.576,468.093l-4.995,19.738h-3.33l-9.838-38.145h4.238l7.216,28.373l4.591-18.011l-2.725-10.362h4.339l0.504,2.072
		l0.505-2.072h4.238l-2.624,10.362l4.592,17.962l7.215-28.324h4.238l-9.839,38.145h-3.33L-114.576,468.093z"/>
	<path d="M-92.779,414.601h4.087v36.221c0.706-1.02,2.857-1.53,6.458-1.53h0.605c5.214,0.493,8.66,2.911,10.344,7.255
		c0.335,1.314,0.505,2.467,0.505,3.453v27.832h-4.087v-28.275c0-2.5-1.481-4.491-4.44-5.972c-0.775-0.295-1.598-0.444-2.472-0.444
		c-2.793,0-4.944,1.415-6.458,4.245c-0.303,0.855-0.454,1.694-0.454,2.517v27.93h-4.087V414.601z"/>
	<path d="M-49.74,486.104c-0.876,1.152-3.179,1.728-6.913,1.728c-2.591,0-5.028-1.019-7.316-3.059
		c-2.153-2.139-3.229-4.589-3.229-7.354v-17.321c0-4.638,2.555-7.979,7.669-10.017c1.177-0.263,2.169-0.395,2.977-0.395h0.252
		c3.362,0,5.55,0.641,6.56,1.925v-1.925h4.086v38.145h-4.086V486.104z M-63.263,461.58v14.606c0,3.782,1.53,6.218,4.591,7.304
		c0.572,0.23,1.278,0.346,2.119,0.346h0.455c2.522,0,4.507-1.366,5.954-4.096c0.269-0.79,0.404-1.597,0.404-2.418v-17.42
		c0-2.171-1.179-4.015-3.532-5.528c-0.977-0.459-1.835-0.689-2.573-0.689h-1.161c-2.456,0-4.389,1.398-5.802,4.194
		C-63.111,458.667-63.263,459.902-63.263,461.58z"/>
	<path d="M-33.191,487.436c-5.282-2.038-7.956-5.428-8.023-10.163l-0.05-62.672h4.087v34.443h8.477v3.899h-8.477v23.39
		c0,1.152,0.133,2.121,0.404,2.911c1.379,3.061,3.532,4.591,6.458,4.591c0.839,0,1.596-0.115,2.271-0.346
		c3.128-1.316,4.692-3.966,4.692-7.946h3.986v2.173c0,2.533-1.144,4.935-3.431,7.203c-2.355,1.942-4.862,2.912-7.518,2.912
		L-33.191,487.436z"/>
	<path d="M25.438,468.093l-4.995,19.738h-3.33l-9.839-38.145h4.239l7.215,28.373l4.591-18.011l-2.725-10.362h4.339l0.504,2.072
		l0.504-2.072h4.238l-2.624,10.362l4.592,17.962l7.215-28.324h4.238l-9.839,38.145h-3.33L25.438,468.093z"/>
	<path d="M47.739,436.412h3.986v7.502h-3.986V436.412z M47.739,449.637h3.986v38.194h-3.986V449.637z"/>
	<path d="M59.748,414.65h4.086v62.721c0.404,3.75,2.504,5.921,6.307,6.514l2.169,0.197v3.75c-5.382,0-9.151-1.94-11.302-5.823
		c-0.841-1.381-1.261-3.239-1.261-5.576V414.65z"/>
	<path d="M76.802,414.65h4.087v62.721c0.404,3.75,2.504,5.921,6.307,6.514l2.17,0.197v3.75c-5.382,0-9.151-1.94-11.302-5.823
		c-0.841-1.381-1.262-3.239-1.262-5.576V414.65z"/>
	<path d="M120.445,485.859v1.973h-4.086l0.05-73.182h4.036v36.222c-0.134,0.164-0.202,0.279-0.202,0.346
		c0,0.032,0.032,0.049,0.101,0.049c0.168,0,0.706-0.279,1.615-0.839c1.848-0.89,3.632-1.334,5.348-1.334h0.101
		c4.81,0,8.292,2.484,10.444,7.453c0.269,1.185,0.404,2.171,0.404,2.96v17.864c0,4.013-2.037,7.14-6.106,9.376
		c-1.547,0.724-3.161,1.085-4.843,1.085C123.742,487.832,121.455,487.173,120.445,485.859z M120.445,460.542v15.792
		c0,3.916,1.849,6.366,5.551,7.353c0.202,0.101,0.521,0.149,0.959,0.149h0.806c2.656,0,4.709-1.481,6.156-4.441
		c0.233-0.888,0.354-1.793,0.354-2.715v-16.581c0-3.586-1.835-5.889-5.5-6.909l-0.958-0.147h-0.959
		c-2.391,0-4.339,1.332-5.853,3.998C120.629,457.959,120.445,459.128,120.445,460.542z"/>
	<path d="M152.99,449.687h0.252c3.599,0,6.542,1.594,8.829,4.787c1.211,1.611,1.817,3.816,1.817,6.612v9.672h-17.609v5.428
		c0,3.782,1.531,6.218,4.591,7.304c0.572,0.23,1.279,0.346,2.12,0.346h0.403c3.432-0.329,5.601-2.205,6.51-5.626l0.1-2.517h3.886
		c-0.068,5.46-2.103,9.212-6.105,11.25c-0.942,0.527-2.574,0.824-4.895,0.889c-2.591,0-5.029-1.019-7.316-3.059
		c-2.153-2.139-3.23-4.589-3.23-7.354v-17.321c0-4.638,2.556-7.979,7.669-10.017C151.189,449.819,152.183,449.687,152.99,449.687z
		 M146.279,461.58v5.182h13.522v-6.909c0-2.172-1.177-3.997-3.532-5.479c-0.978-0.493-1.835-0.738-2.573-0.738h-1.161
		c-2.455,0-4.39,1.413-5.803,4.243C146.43,458.634,146.279,459.87,146.279,461.58z"/>
	<path d="M201.881,478.258l7.367-28.67h4.036l-18.669,73.279h-4.188l9.334-36.714l-9.334-36.565h4.188L201.881,478.258z"/>
	<path d="M228.118,449.687c4.709,0,8.123,2.45,10.242,7.353c0.27,1.15,0.404,2.139,0.404,2.96v17.519
		c0,3.98-2.001,7.073-6.004,9.277c-1.547,0.691-3.128,1.036-4.742,1.036c-4.373,0-7.653-2.088-9.839-6.267
		c-0.639-1.118-0.958-3.224-0.958-6.315v-13.028c0-4.112,0.824-7.009,2.473-8.687C221.945,450.969,224.753,449.687,228.118,449.687z
		 M221.306,460.296v16.876c0,3.257,1.767,5.444,5.298,6.563c0.134,0.065,0.556,0.1,1.261,0.1h0.606c2.59,0,4.575-1.449,5.953-4.343
		c0.27-0.856,0.404-1.744,0.404-2.666v-16.285c0-3.485-1.799-5.739-5.398-6.759l-0.959-0.147h-0.959
		c-2.119,0-3.918,1.118-5.398,3.355C221.575,458.01,221.306,459.112,221.306,460.296z"/>
	<path d="M260.914,486.104c-0.841,1.152-3.145,1.728-6.913,1.728c-4.708,0-8.124-2.367-10.242-7.105
		c-0.37-1.087-0.555-2.271-0.555-3.554v-27.535h3.986v26.5c0,2.401,0.521,4.177,1.564,5.329c1.514,1.579,3.094,2.369,4.743,2.369
		h0.858c2.926,0,5.029-1.564,6.307-4.688c0.168-0.626,0.252-1.283,0.252-1.975v-27.535H265v38.145h-4.086V486.104z"/>
	<path d="M273.324,451.365c0.842-1.152,3.162-1.728,6.963-1.728c4.678,0,8.074,2.385,10.193,7.154
		c0.369,1.087,0.555,2.747,0.555,4.986h-3.936c0-3.883-1.58-6.515-4.742-7.897c-0.641-0.164-1.178-0.245-1.615-0.245h-0.809
		c-2.926,0-5.045,1.563-6.355,4.687c-0.168,0.658-0.254,1.317-0.254,1.975v27.535h-4.085v-38.145h4.085V451.365z"/>
	<path d="M328.876,414.601c2.691,0,5.197,0.986,7.518,2.96c2.287,2.237,3.432,4.623,3.432,7.155v2.172h-3.988
		c0-3.98-1.563-6.612-4.691-7.896c-0.705-0.264-1.461-0.396-2.27-0.396c-2.926,0-5.08,1.529-6.459,4.59
		c-0.268,0.822-0.404,1.793-0.404,2.911v23.391h8.479v3.898h-8.479v34.444h-4.035V425.21c0.066-4.77,2.742-8.175,8.023-10.215
		L328.876,414.601z"/>
	<path d="M354.306,486.104c-0.842,1.152-3.145,1.728-6.912,1.728c-4.711,0-8.123-2.367-10.242-7.105
		c-0.371-1.087-0.557-2.271-0.557-3.554v-27.535h3.986v26.5c0,2.401,0.521,4.177,1.566,5.329c1.512,1.579,3.094,2.369,4.74,2.369
		h0.859c2.926,0,5.027-1.564,6.307-4.688c0.168-0.626,0.252-1.283,0.252-1.975v-27.535h4.088v38.145h-4.088V486.104z"/>
	<path d="M370.654,487.436c-5.281-2.038-7.955-5.428-8.021-10.163l-0.051-62.672h4.086v34.443h8.477v3.899h-8.477v23.39
		c0,1.152,0.135,2.121,0.402,2.911c1.379,3.061,3.533,4.591,6.459,4.591c0.842,0,1.598-0.115,2.27-0.346
		c3.131-1.316,4.695-3.966,4.695-7.946h3.984v2.173c0,2.533-1.145,4.935-3.43,7.203c-2.355,1.942-4.861,2.912-7.52,2.912
		L370.654,487.436z"/>
	<path d="M406.427,486.104c-0.84,1.152-3.145,1.728-6.914,1.728c-4.709,0-8.121-2.367-10.24-7.105
		c-0.371-1.087-0.557-2.271-0.557-3.554v-27.535h3.986v26.5c0,2.401,0.521,4.177,1.564,5.329c1.512,1.579,3.094,2.369,4.742,2.369
		h0.857c2.926,0,5.029-1.564,6.307-4.688c0.168-0.626,0.254-1.283,0.254-1.975v-27.535h4.086v38.145h-4.086V486.104z"/>
	<path d="M418.839,451.365c0.84-1.152,3.162-1.728,6.961-1.728c4.676,0,8.074,2.385,10.193,7.154
		c0.369,1.087,0.555,2.747,0.555,4.986h-3.936c0-3.883-1.582-6.515-4.744-7.897c-0.637-0.164-1.176-0.245-1.611-0.245h-0.809
		c-2.926,0-5.047,1.563-6.359,4.687c-0.168,0.658-0.25,1.317-0.25,1.975v27.535h-4.088v-38.145h4.088V451.365z"/>
	<path d="M451.583,449.687h0.254c3.598,0,6.541,1.594,8.828,4.787c1.211,1.611,1.816,3.816,1.816,6.612v9.672h-17.609v5.428
		c0,3.782,1.533,6.218,4.592,7.304c0.572,0.23,1.279,0.346,2.119,0.346h0.404c3.432-0.329,5.602-2.205,6.51-5.626l0.1-2.517h3.885
		c-0.066,5.46-2.102,9.212-6.104,11.25c-0.943,0.527-2.574,0.824-4.895,0.889c-2.592,0-5.029-1.019-7.316-3.059
		c-2.152-2.139-3.229-4.589-3.229-7.354v-17.321c0-4.638,2.555-7.979,7.668-10.017C449.785,449.819,450.777,449.687,451.583,449.687
		z M444.873,461.58v5.182h13.523v-6.909c0-2.172-1.178-3.997-3.533-5.479c-0.975-0.493-1.832-0.738-2.572-0.738h-1.16
		c-2.455,0-4.389,1.413-5.803,4.243C445.025,458.634,444.873,459.87,444.873,461.58z"/>
	<path d="M511.576,414.601h4.086v36.221c0.707-1.02,2.859-1.53,6.461-1.53h0.604c5.213,0.493,8.662,2.911,10.344,7.255
		c0.336,1.314,0.504,2.467,0.504,3.453v27.832h-4.086v-28.275c0-2.5-1.48-4.491-4.439-5.972c-0.775-0.295-1.6-0.444-2.473-0.444
		c-2.793,0-4.945,1.415-6.459,4.245c-0.303,0.855-0.455,1.694-0.455,2.517v27.93h-4.086V414.601z"/>
	<path d="M548.056,449.687c4.709,0,8.121,2.45,10.24,7.353c0.271,1.15,0.404,2.139,0.404,2.96v17.519
		c0,3.98-2.002,7.073-6.004,9.277c-1.547,0.691-3.129,1.036-4.742,1.036c-4.373,0-7.652-2.088-9.84-6.267
		c-0.639-1.118-0.957-3.224-0.957-6.315v-13.028c0-4.112,0.822-7.009,2.473-8.687C541.882,450.969,544.691,449.687,548.056,449.687z
		 M541.244,460.296v16.876c0,3.257,1.766,5.444,5.297,6.563c0.135,0.065,0.557,0.1,1.262,0.1h0.607c2.59,0,4.572-1.449,5.953-4.343
		c0.268-0.856,0.402-1.744,0.402-2.666v-16.285c0-3.485-1.799-5.739-5.398-6.759l-0.957-0.147h-0.961
		c-2.119,0-3.918,1.118-5.398,3.355C541.513,458.01,541.244,459.112,541.244,460.296z"/>
	<path d="M567.228,451.365c0.875-1.185,3.195-1.776,6.963-1.776c4.271,0,7.166,1.398,8.678,4.194c0.338-0.79,1.682-1.793,4.037-3.01
		c1.514-0.79,3.162-1.185,4.945-1.185h0.201c3.668,0,6.66,1.629,8.98,4.886c1.18,1.611,1.766,3.767,1.766,6.463v26.895h-4.035
		v-27.93c0-2.205-1.195-4.079-3.582-5.626c-1.01-0.461-1.885-0.691-2.623-0.691h-1.211c-2.49,0-4.459,1.415-5.904,4.245
		c-0.303,0.821-0.453,2.089-0.453,3.799v26.203h-3.938v-27.238c0-3.588-1.832-5.891-5.498-6.909l-0.959-0.1h-1.01
		c-2.152,0-3.984,1.135-5.5,3.406c-0.57,1.052-0.857,2.17-0.857,3.354v27.486h-4.037v-38.145h4.037V451.365z"/>
	<path d="M617.937,449.687h0.25c3.602,0,6.543,1.594,8.83,4.787c1.211,1.611,1.818,3.816,1.818,6.612v9.672h-17.611v5.428
		c0,3.782,1.531,6.218,4.594,7.304c0.572,0.23,1.277,0.346,2.119,0.346h0.404c3.43-0.329,5.6-2.205,6.506-5.626l0.102-2.517h3.887
		c-0.068,5.46-2.104,9.212-6.107,11.25c-0.939,0.527-2.572,0.824-4.895,0.889c-2.59,0-5.027-1.019-7.314-3.059
		c-2.154-2.139-3.229-4.589-3.229-7.354v-17.321c0-4.638,2.557-7.979,7.668-10.017C616.136,449.819,617.128,449.687,617.937,449.687
		z M611.224,461.58v5.182h13.523v-6.909c0-2.172-1.178-3.997-3.533-5.479c-0.975-0.493-1.832-0.738-2.572-0.738h-1.16
		c-2.457,0-4.391,1.413-5.801,4.243C611.376,458.634,611.224,459.87,611.224,461.58z"/>
	<path d="M643.769,414.65c2.623,0,5.129,0.971,7.52,2.911c2.252,2.271,3.379,4.672,3.379,7.206v14.754
		c0,3.586-1.867,6.761-5.602,9.523c-2.152,1.908-3.227,3.833-3.227,5.773v19.789h-4.088v-18.899c0-4.245,1.967-7.781,5.902-10.61
		c2.02-1.612,3.027-3.783,3.027-6.514v-13.126c0-2.994-1.564-5.149-4.691-6.465c-0.672-0.229-1.43-0.345-2.271-0.345
		c-2.859,0-4.979,1.447-6.357,4.341c-0.303,0.856-0.453,2.173-0.453,3.948h-3.986c0-5.889,2.641-9.869,7.922-11.941L643.769,414.65z
		 M641.751,480.726h3.984v7.105h-3.984V480.726z"/>
</g>
<g>
	<path d="M14.344,59.04l-3.48,14.063h-2.32L1.688,45.926h2.953l5.027,20.215l3.199-12.832l-1.898-7.383h3.023l0.352,1.477
		l0.352-1.477h2.953l-1.828,7.383l3.199,12.797l5.027-20.18H27l-6.855,27.176h-2.32L14.344,59.04z"/>
	<path d="M29.531,20.93h2.848v25.805c0.492-0.726,1.992-1.09,4.5-1.09h0.422c3.633,0.352,6.035,2.074,7.207,5.168
		c0.234,0.938,0.352,1.758,0.352,2.461v19.828h-2.848V52.958c0-1.781-1.032-3.199-3.094-4.254c-0.54-0.211-1.113-0.316-1.723-0.316
		c-1.946,0-3.445,1.008-4.5,3.023c-0.211,0.61-0.316,1.208-0.316,1.793v19.898h-2.848V20.93z"/>
	<path d="M59.52,71.872c-0.61,0.82-2.215,1.23-4.816,1.23c-1.805,0-3.504-0.727-5.098-2.18c-1.5-1.523-2.25-3.27-2.25-5.238v-12.34
		c0-3.305,1.781-5.683,5.344-7.137c0.82-0.188,1.512-0.281,2.074-0.281h0.176c2.343,0,3.867,0.457,4.57,1.371v-1.371h2.848v27.176
		H59.52V71.872z M50.098,54.399v10.406c0,2.695,1.066,4.43,3.199,5.203c0.398,0.164,0.891,0.246,1.477,0.246h0.316
		c1.758,0,3.141-0.972,4.148-2.918c0.188-0.563,0.281-1.137,0.281-1.723v-12.41c0-1.547-0.821-2.859-2.461-3.938
		c-0.68-0.328-1.278-0.492-1.793-0.492h-0.809c-1.711,0-3.059,0.997-4.043,2.988C50.203,52.325,50.098,53.204,50.098,54.399z"/>
	<path d="M71.051,72.821c-3.68-1.453-5.543-3.867-5.59-7.242L65.426,20.93h2.848v24.539h5.906v2.777h-5.906v16.664
		c0,0.821,0.093,1.512,0.281,2.074c0.961,2.18,2.461,3.27,4.5,3.27c0.585,0,1.113-0.082,1.582-0.246
		c2.18-0.937,3.27-2.824,3.27-5.66h2.777v1.547c0,1.805-0.797,3.516-2.391,5.133c-1.641,1.383-3.387,2.074-5.238,2.074
		L71.051,72.821z"/>
	<path d="M111.902,59.04l-3.48,14.063h-2.32l-6.855-27.176h2.953l5.027,20.215l3.199-12.832l-1.898-7.383h3.023l0.352,1.477
		l0.352-1.477h2.953l-1.828,7.383l3.199,12.797l5.027-20.18h2.953l-6.855,27.176h-2.32L111.902,59.04z"/>
	<path d="M127.441,36.469h2.777v5.344h-2.777V36.469z M127.441,45.891h2.777v27.211h-2.777V45.891z"/>
	<path d="M135.809,20.965h2.848v44.684c0.281,2.672,1.746,4.219,4.395,4.641l1.512,0.141v2.672c-3.75,0-6.375-1.383-7.875-4.148
		c-0.586-0.984-0.879-2.308-0.879-3.973V20.965z"/>
	<path d="M147.691,20.965h2.848v44.684c0.281,2.672,1.746,4.219,4.395,4.641l1.512,0.141v2.672c-3.75,0-6.375-1.383-7.875-4.148
		c-0.586-0.984-0.879-2.308-0.879-3.973V20.965z"/>
	<path d="M178.102,71.696v1.406h-2.848l0.035-52.137h2.813V46.77c-0.094,0.118-0.141,0.199-0.141,0.246
		c0,0.023,0.023,0.035,0.07,0.035c0.117,0,0.492-0.199,1.125-0.598c1.289-0.633,2.531-0.949,3.727-0.949h0.07
		c3.352,0,5.777,1.77,7.277,5.309c0.188,0.844,0.281,1.547,0.281,2.109v12.727c0,2.86-1.418,5.086-4.254,6.68
		c-1.078,0.515-2.203,0.773-3.375,0.773C180.398,73.102,178.805,72.633,178.102,71.696z M178.102,53.661v11.25
		c0,2.79,1.289,4.535,3.867,5.238c0.141,0.07,0.363,0.105,0.668,0.105h0.563c1.851,0,3.281-1.055,4.289-3.164
		c0.164-0.633,0.246-1.277,0.246-1.934V53.344c0-2.554-1.278-4.195-3.832-4.922l-0.668-0.105h-0.668
		c-1.665,0-3.023,0.949-4.078,2.848C178.23,51.821,178.102,52.653,178.102,53.661z"/>
	<path d="M200.777,45.926h0.176c2.508,0,4.558,1.137,6.152,3.41c0.844,1.148,1.266,2.719,1.266,4.711v6.891h-12.27v3.867
		c0,2.695,1.066,4.43,3.199,5.203c0.398,0.164,0.891,0.246,1.477,0.246h0.281c2.391-0.234,3.902-1.57,4.535-4.008l0.07-1.793h2.707
		c-0.047,3.891-1.465,6.563-4.254,8.016c-0.656,0.375-1.793,0.585-3.41,0.633c-1.805,0-3.504-0.727-5.098-2.18
		c-1.5-1.523-2.25-3.27-2.25-5.238v-12.34c0-3.305,1.781-5.683,5.344-7.137C199.523,46.02,200.215,45.926,200.777,45.926z
		 M196.102,54.399v3.691h9.422v-4.922c0-1.547-0.821-2.848-2.461-3.902c-0.68-0.352-1.278-0.527-1.793-0.527h-0.809
		c-1.711,0-3.059,1.008-4.043,3.023C196.207,52.302,196.102,53.181,196.102,54.399z"/>
	<path d="M234.844,66.282l5.133-20.426h2.813l-13.008,52.207h-2.918l6.504-26.156l-6.504-26.051h2.918L234.844,66.282z"/>
	<path d="M253.125,45.926c3.281,0,5.66,1.746,7.137,5.238c0.188,0.821,0.281,1.524,0.281,2.109v12.48
		c0,2.836-1.395,5.04-4.184,6.609c-1.078,0.492-2.18,0.738-3.305,0.738c-3.047,0-5.332-1.488-6.855-4.465
		c-0.445-0.796-0.668-2.297-0.668-4.5v-9.281c0-2.93,0.574-4.992,1.723-6.188C248.825,46.84,250.782,45.926,253.125,45.926z
		 M248.379,53.485v12.023c0,2.32,1.23,3.879,3.691,4.676c0.094,0.047,0.387,0.07,0.879,0.07h0.422c1.805,0,3.188-1.031,4.148-3.094
		c0.188-0.609,0.281-1.242,0.281-1.898V53.661c0-2.484-1.254-4.09-3.762-4.816l-0.668-0.105h-0.668c-1.477,0-2.73,0.797-3.762,2.391
		C248.567,51.856,248.379,52.641,248.379,53.485z"/>
	<path d="M275.977,71.872c-0.586,0.82-2.191,1.23-4.816,1.23c-3.281,0-5.66-1.688-7.137-5.063c-0.258-0.773-0.387-1.617-0.387-2.531
		V45.891h2.777V64.77c0,1.711,0.363,2.977,1.09,3.797c1.055,1.125,2.156,1.688,3.305,1.688h0.598c2.039,0,3.504-1.113,4.395-3.34
		c0.117-0.445,0.176-0.914,0.176-1.406V45.891h2.848v27.176h-2.848V71.872z"/>
	<path d="M284.625,47.122c0.586-0.82,2.203-1.23,4.852-1.23c3.258,0,5.625,1.7,7.102,5.098c0.258,0.773,0.387,1.957,0.387,3.551
		h-2.742c0-2.765-1.102-4.641-3.305-5.625c-0.445-0.117-0.82-0.176-1.125-0.176h-0.563c-2.039,0-3.516,1.113-4.43,3.34
		c-0.117,0.469-0.176,0.938-0.176,1.406v19.617h-2.848V45.926h2.848V47.122z"/>
	<path d="M323.333,20.93c1.875,0,3.621,0.703,5.238,2.109c1.594,1.594,2.391,3.293,2.391,5.098v1.547h-2.777
		c0-2.835-1.09-4.711-3.27-5.625c-0.492-0.188-1.02-0.281-1.582-0.281c-2.039,0-3.539,1.09-4.5,3.27
		c-0.188,0.586-0.281,1.278-0.281,2.074v16.664h5.906v2.777h-5.906v24.539h-2.813V28.489c0.047-3.398,1.91-5.824,5.59-7.277
		L323.333,20.93z"/>
	<path d="M341.051,71.872c-0.586,0.82-2.191,1.23-4.816,1.23c-3.281,0-5.66-1.688-7.137-5.063c-0.258-0.773-0.387-1.617-0.387-2.531
		V45.891h2.777V64.77c0,1.711,0.363,2.977,1.09,3.797c1.055,1.125,2.156,1.688,3.305,1.688h0.598c2.039,0,3.504-1.113,4.395-3.34
		c0.117-0.445,0.176-0.914,0.176-1.406V45.891h2.848v27.176h-2.848V71.872z"/>
	<path d="M352.442,72.821c-3.68-1.453-5.543-3.867-5.59-7.242l-0.035-44.648h2.848v24.539h5.906v2.777h-5.906v16.664
		c0,0.821,0.094,1.512,0.281,2.074c0.961,2.18,2.461,3.27,4.5,3.27c0.586,0,1.113-0.082,1.582-0.246
		c2.18-0.937,3.27-2.824,3.27-5.66h2.777v1.547c0,1.805-0.797,3.516-2.391,5.133c-1.641,1.383-3.387,2.074-5.238,2.074
		L352.442,72.821z"/>
	<path d="M377.368,71.872c-0.586,0.82-2.191,1.23-4.816,1.23c-3.281,0-5.66-1.688-7.137-5.063c-0.258-0.773-0.387-1.617-0.387-2.531
		V45.891h2.777V64.77c0,1.711,0.363,2.977,1.09,3.797c1.055,1.125,2.156,1.688,3.305,1.688h0.598c2.039,0,3.504-1.113,4.395-3.34
		c0.117-0.445,0.176-0.914,0.176-1.406V45.891h2.848v27.176h-2.848V71.872z"/>
	<path d="M386.016,47.122c0.586-0.82,2.203-1.23,4.852-1.23c3.258,0,5.625,1.7,7.102,5.098c0.258,0.773,0.387,1.957,0.387,3.551
		h-2.742c0-2.765-1.102-4.641-3.305-5.625c-0.445-0.117-0.82-0.176-1.125-0.176h-0.563c-2.039,0-3.516,1.113-4.43,3.34
		c-0.117,0.469-0.176,0.938-0.176,1.406v19.617h-2.848V45.926h2.848V47.122z"/>
	<path d="M408.833,45.926h0.176c2.508,0,4.559,1.137,6.152,3.41c0.844,1.148,1.266,2.719,1.266,4.711v6.891h-12.27v3.867
		c0,2.695,1.066,4.43,3.199,5.203c0.398,0.164,0.891,0.246,1.477,0.246h0.281c2.391-0.234,3.902-1.57,4.535-4.008l0.07-1.793h2.707
		c-0.047,3.891-1.465,6.563-4.254,8.016c-0.656,0.375-1.793,0.585-3.41,0.633c-1.805,0-3.504-0.727-5.098-2.18
		c-1.5-1.523-2.25-3.27-2.25-5.238v-12.34c0-3.305,1.781-5.683,5.344-7.137C407.579,46.02,408.27,45.926,408.833,45.926z
		 M404.157,54.399v3.691h9.422v-4.922c0-1.547-0.82-2.848-2.461-3.902c-0.68-0.352-1.277-0.527-1.793-0.527h-0.809
		c-1.711,0-3.059,1.008-4.043,3.023C404.262,52.302,404.157,53.181,404.157,54.399z"/>
	<path d="M434.954,20.93h2.848v25.805c0.492-0.726,1.992-1.09,4.5-1.09h0.422c3.633,0.352,6.035,2.074,7.207,5.168
		c0.234,0.938,0.352,1.758,0.352,2.461v19.828h-2.848V52.958c0-1.781-1.031-3.199-3.094-4.254c-0.539-0.211-1.113-0.316-1.723-0.316
		c-1.945,0-3.445,1.008-4.5,3.023c-0.211,0.61-0.316,1.208-0.316,1.793v19.898h-2.848V20.93z"/>
	<path d="M460.372,45.926c3.281,0,5.66,1.746,7.137,5.238c0.188,0.821,0.281,1.524,0.281,2.109v12.48
		c0,2.836-1.395,5.04-4.184,6.609c-1.078,0.492-2.18,0.738-3.305,0.738c-3.047,0-5.332-1.488-6.855-4.465
		c-0.445-0.796-0.668-2.297-0.668-4.5v-9.281c0-2.93,0.574-4.992,1.723-6.188C456.071,46.84,458.028,45.926,460.372,45.926z
		 M455.625,53.485v12.023c0,2.32,1.23,3.879,3.691,4.676c0.094,0.047,0.387,0.07,0.879,0.07h0.422c1.805,0,3.188-1.031,4.148-3.094
		c0.188-0.609,0.281-1.242,0.281-1.898V53.661c0-2.484-1.254-4.09-3.762-4.816l-0.668-0.105h-0.668c-1.477,0-2.73,0.797-3.762,2.391
		C455.813,51.856,455.625,52.641,455.625,53.485z"/>
	<path d="M473.731,47.122c0.609-0.844,2.227-1.266,4.852-1.266c2.977,0,4.992,0.997,6.047,2.988
		c0.234-0.563,1.172-1.277,2.813-2.145c1.055-0.563,2.203-0.844,3.445-0.844h0.141c2.555,0,4.641,1.16,6.258,3.48
		c0.82,1.148,1.23,2.684,1.23,4.605v19.16h-2.813V53.204c0-1.57-0.832-2.906-2.496-4.008c-0.703-0.328-1.313-0.492-1.828-0.492
		h-0.844c-1.734,0-3.105,1.008-4.113,3.023c-0.211,0.586-0.316,1.489-0.316,2.707v18.668h-2.742V53.696
		c0-2.554-1.277-4.195-3.832-4.922l-0.668-0.07h-0.703c-1.5,0-2.777,0.809-3.832,2.426c-0.398,0.75-0.598,1.547-0.598,2.391v19.582
		h-2.813V45.926h2.813V47.122z"/>
	<path d="M509.063,45.926h0.176c2.508,0,4.559,1.137,6.152,3.41c0.844,1.148,1.266,2.719,1.266,4.711v6.891h-12.27v3.867
		c0,2.695,1.066,4.43,3.199,5.203c0.398,0.164,0.891,0.246,1.477,0.246h0.281c2.391-0.234,3.902-1.57,4.535-4.008l0.07-1.793h2.707
		c-0.047,3.891-1.465,6.563-4.254,8.016c-0.656,0.375-1.793,0.585-3.41,0.633c-1.805,0-3.504-0.727-5.098-2.18
		c-1.5-1.523-2.25-3.27-2.25-5.238v-12.34c0-3.305,1.781-5.683,5.344-7.137C507.809,46.02,508.5,45.926,509.063,45.926z
		 M504.387,54.399v3.691h9.422v-4.922c0-1.547-0.82-2.848-2.461-3.902c-0.68-0.352-1.277-0.527-1.793-0.527h-0.809
		c-1.711,0-3.059,1.008-4.043,3.023C504.493,52.302,504.387,53.181,504.387,54.399z"/>
	<path d="M527.063,20.965c1.828,0,3.574,0.691,5.238,2.074c1.57,1.617,2.355,3.328,2.355,5.133v10.512
		c0,2.555-1.301,4.816-3.902,6.785c-1.5,1.359-2.25,2.73-2.25,4.113V63.68h-2.848V50.215c0-3.023,1.371-5.542,4.113-7.559
		c1.406-1.148,2.109-2.695,2.109-4.641v-9.352c0-2.132-1.09-3.668-3.27-4.605c-0.469-0.164-0.996-0.246-1.582-0.246
		c-1.992,0-3.469,1.032-4.43,3.094c-0.211,0.61-0.316,1.547-0.316,2.813h-2.777c0-4.195,1.84-7.031,5.52-8.508L527.063,20.965z
		 M525.657,68.04h2.777v5.063h-2.777V68.04z"/>
</g>
</svg>
